<svg width="16" height="16" viewBox="0 0 16 16" fill="none" xmlns="http://www.w3.org/2000/svg">
<g clip-path="url(#clip0_481_1683)">
<mask id="mask0_481_1683" style="mask-type:luminance" maskUnits="userSpaceOnUse" x="0" y="0" width="16" height="16">
<path d="M16 0H0V16H16V0Z" fill="white"/>
</mask>
<g mask="url(#mask0_481_1683)">
<path fill-rule="evenodd" clip-rule="evenodd" d="M8.76494 14.0954L9.91671 14.0978C9.91442 15.1478 9.05897 15.9982 8.00332 16C6.94767 16.0018 6.08931 15.1543 6.08341 14.1044L7.23514 14.098C7.23751 14.517 7.58006 14.8552 8.00134 14.8545C8.42264 14.8538 8.76402 14.5144 8.76494 14.0954ZM8.00004 2.22397C5.88296 2.22397 4.16671 3.9309 4.16671 6.03652L4.16721 6.04638H4.16671V10.5752H4.16284L4.10777 11.1449C4.03069 11.5365 3.87977 11.9026 3.66966 12.2276L3.44144 12.5178H12.5586L12.3304 12.2276C12.094 11.862 11.9326 11.4444 11.8669 10.9969L11.8364 10.5752H11.8334V6.04638H11.8329L11.8334 6.03652C11.8334 3.9309 10.1171 2.22397 8.00004 2.22397ZM8.00004 0C8.31761 0 8.57504 0.256042 8.57504 0.571882V1.11573L9.00436 1.1809C11.2752 1.64305 12.9834 3.64138 12.9834 6.03652L12.9829 6.04638H12.984V10.5412H12.9854C12.9845 11.5875 13.8048 12.4526 14.855 12.513L14.8547 12.5178H15.0917C15.4093 12.5178 15.6667 12.7739 15.6667 13.0897C15.6667 13.4056 15.4093 13.6616 15.0917 13.6616H12.984V13.6735H3.01737V13.6616H0.908374C0.590812 13.6616 0.333374 13.4056 0.333374 13.0897C0.333374 12.7739 0.590812 12.5178 0.908374 12.5178H1.14541L1.14512 12.513C2.19532 12.4526 3.01559 11.5875 3.01464 10.5412L3.01737 10.5412V6.04963L3.01671 6.03652C3.01671 3.64138 4.72491 1.64305 6.99572 1.1809L7.42504 1.11573V0.571882C7.42504 0.256042 7.68247 0 8.00004 0Z" fill="#002040"/>
</g>
</g>
<defs>
<clipPath id="clip0_481_1683">
<rect width="16" height="16" fill="white"/>
</clipPath>
</defs>
</svg>
