<svg width="16" height="16" viewBox="0 0 16 16" fill="none" xmlns="http://www.w3.org/2000/svg">
<g clip-path="url(#clip0_480_1572)">
<mask id="mask0_480_1572" style="mask-type:luminance" maskUnits="userSpaceOnUse" x="0" y="0" width="16" height="16">
<path d="M16 0H0V16H16V0Z" fill="white"/>
</mask>
<g mask="url(#mask0_480_1572)">
<path fill-rule="evenodd" clip-rule="evenodd" d="M12.4766 5.00362C12.6241 5.00362 12.7717 5.0594 12.8843 5.17098L15.3311 7.59535C15.4437 7.70693 15.5 7.85317 15.5 7.9994L15.4994 8.00255L15.5 8.00568C15.5 8.15192 15.4437 8.29815 15.3311 8.40973L12.8843 10.8341C12.6591 11.0573 12.294 11.0573 12.0688 10.8341C11.8435 10.611 11.8435 10.2491 12.0688 10.026L13.5367 8.57143H10.3027C9.98415 8.57143 9.72595 8.31558 9.72595 8C9.72595 7.68442 9.98415 7.42857 10.3027 7.42857H13.5316L12.0688 5.9791C11.8435 5.75595 11.8435 5.39413 12.0688 5.17098C12.1814 5.0594 12.3289 5.00362 12.4766 5.00362ZM1.94873 0H12.8922C13.6923 0 14.3409 0.642682 14.3409 1.43548V3.42857H14.3396L14.2943 3.651C14.2067 3.85608 14.0018 4 13.7629 4C13.4444 4 13.1862 3.74417 13.1862 3.42857L13.1875 3.42203V1.93793C13.1875 1.49883 12.8283 1.14286 12.3851 1.14286H2.45583C2.01267 1.14286 1.65341 1.49883 1.65341 1.93793V14.0621C1.65341 14.5012 2.01267 14.8572 2.45583 14.8572H12.3851C12.8283 14.8572 13.1875 14.5012 13.1875 14.0621V12.578L13.1862 12.5714C13.1862 12.2558 13.4444 12 13.7629 12C14.0814 12 14.3396 12.2558 14.3396 12.5714H14.3409V14.5645C14.3409 15.3573 13.6923 16 12.8922 16H1.94873C1.14862 16 0.5 15.3573 0.5 14.5645V1.43548C0.5 0.642682 1.14862 0 1.94873 0Z" fill="#002040"/>
</g>
</g>
<defs>
<clipPath id="clip0_480_1572">
<rect width="16" height="16" fill="white"/>
</clipPath>
</defs>
</svg>
