<svg width="24" height="24" viewBox="0 0 24 24" fill="none" xmlns="http://www.w3.org/2000/svg">
<g clip-path="url(#clip0_141_88)">
<mask id="mask0_141_88" style="mask-type:luminance" maskUnits="userSpaceOnUse" x="0" y="0" width="24" height="24">
<path d="M24 0H0V24H24V0Z" fill="white"/>
</mask>
<g mask="url(#mask0_141_88)">
<path d="M24 0H0V24H24V0Z" fill="#20ECF6"/>
<path fill-rule="evenodd" clip-rule="evenodd" d="M13.5716 4.83716C13.7689 4.83444 13.9672 4.90694 14.1196 5.05534L20.6709 11.6065L20.6677 11.6107C20.6727 11.615 20.677 11.6196 20.682 11.6242C20.9726 11.9234 20.9667 12.4027 20.6677 12.6945L14.1166 19.2456C13.9738 19.3885 13.7795 19.469 13.5772 19.4694C13.1535 19.4703 12.8095 19.1278 12.8084 18.7043V15.2365H7.4134C6.98974 15.2305 6.64875 14.8889 6.64262 14.4655V9.8364C6.64765 9.41295 6.98974 9.07109 7.4134 9.06561H12.8115V5.59777C12.8145 5.40049 12.892 5.21194 13.0297 5.07044C13.1781 4.91787 13.3744 4.8399 13.5716 4.83716ZM6.6695 4.44357H10.5236C10.7353 4.4462 10.9064 4.61722 10.909 4.82896C10.909 4.86111 10.9132 4.94137 10.9213 5.06932C10.9289 5.17562 10.9309 5.28193 10.9272 5.38845C10.9217 5.48338 10.9097 5.57786 10.8911 5.67126C10.8782 5.76072 10.8357 5.84317 10.7701 5.90574C10.7003 5.96129 10.6126 5.98927 10.5236 5.98425H6.6695C6.15704 5.97704 5.6647 6.18219 5.30884 6.55075C4.9405 6.9066 4.73577 7.39918 4.74321 7.9112V16.3886C4.736 16.9007 4.94072 17.393 5.30884 17.7491C5.6647 18.1179 6.15704 18.3229 6.6695 18.3156H10.4272L10.5608 18.3279C10.6535 18.3358 10.6997 18.348 10.6997 18.364C10.6997 18.3801 10.736 18.4023 10.8003 18.4305C10.8648 18.4586 10.893 18.4948 10.8849 18.5391C10.8784 18.5948 10.8867 18.6509 10.909 18.7021C10.909 18.7336 10.9132 18.8139 10.9213 18.9428C10.9289 19.0488 10.9309 19.1553 10.9272 19.2616C10.9217 19.3568 10.9097 19.4513 10.8911 19.5444C10.8784 19.6342 10.836 19.7174 10.7701 19.78C10.7003 19.8353 10.6126 19.8632 10.5236 19.8585H6.6695C5.74692 19.8719 4.86001 19.5032 4.21894 18.8401C3.55599 18.1986 3.18787 17.3119 3.20165 16.3895V7.9112C3.18787 6.98906 3.55621 6.10214 4.21894 5.46085C4.86045 4.7979 5.74715 4.42979 6.6695 4.44357ZM4.14283 2C2.95931 2 2 2.95931 2 4.14283V19.8571C2 21.0406 2.95931 22 4.14283 22H19.8571C21.0406 22 22 21.0406 22 19.8571V4.14283C22 2.95931 21.0406 2 19.8571 2H4.14283ZM4 0H20C22.2091 0 24 1.7909 24 4V20C24 22.2091 22.2091 24 20 24H4C1.7909 24 0 22.2091 0 20V4C0 1.7909 1.7909 0 4 0Z" fill="#002B52"/>
</g>
</g>
<defs>
<clipPath id="clip0_141_88">
<rect width="24" height="24" fill="white"/>
</clipPath>
</defs>
</svg>
