<svg width="81" height="50" viewBox="0 0 81 50" fill="none" xmlns="http://www.w3.org/2000/svg">
<g clip-path="url(#clip0_103_38)">
<mask id="mask0_103_38" style="mask-type:luminance" maskUnits="userSpaceOnUse" x="0" y="0" width="81" height="50">
<path d="M81 0H0V50H81V0Z" fill="white"/>
</mask>
<g mask="url(#mask0_103_38)">
<path d="M81 0H0V50.0073H81V0Z" fill="white"/>
<path fill-rule="evenodd" clip-rule="evenodd" d="M26.1997 4.83253L26.1995 4.83348V4.83895C26.1973 4.86794 26.1929 4.89692 26.1864 4.92566L26.1808 4.94378L26.1804 4.94589L26.1788 4.95023L26.16 5.01095L26.1416 5.04898L26.1398 5.05357L26.1375 5.05728L26.12 5.0934L26.0876 5.13802L26.0788 5.15228L26.0718 5.15974L26.0484 5.19187L26.0027 5.2337L25.998 5.23873L25.9944 5.2413L25.9611 5.2718C25.9297 5.29525 25.8963 5.31548 25.8614 5.33231L25.8543 5.33492L18.5635 9.50292L18.5417 9.51271L18.4953 9.53764L18.4645 9.54709L18.4518 9.55278L18.4305 9.55757L18.3816 9.57257L18.3489 9.57584L18.3358 9.57875L18.3136 9.57938L18.2597 9.58473L18.2282 9.5816L18.2189 9.58181L18.2013 9.57889L18.1378 9.57257L18.108 9.56341L18.1045 9.56278L18.0964 9.5598L18.0242 9.53764L17.9975 9.52327L17.9957 9.52257L17.9915 9.52L17.9215 9.48243L17.8983 9.46348L17.896 9.46209L17.891 9.4575L17.8319 9.40924L17.8115 9.38473L17.8087 9.38216L17.8041 9.37584L17.7581 9.32063L17.7401 9.28792L17.7371 9.28368L17.7334 9.27563L17.7023 9.21882L17.6906 9.18132L17.6867 9.17306L17.6836 9.15924L17.667 9.10639L17.6634 9.07104L17.6605 9.0582L17.6599 9.03653L17.6548 8.9857V0.599045L17.6599 0.548167L17.6605 0.526514L17.6634 0.513667L17.667 0.478316L17.6836 0.42551L17.6867 0.411679L17.6906 0.403372L17.7023 0.36587L17.7334 0.309113L17.7371 0.30104L17.7401 0.296829L17.7581 0.264113L17.8041 0.208877L17.8087 0.202572L17.8115 0.19999L17.8319 0.175455L17.891 0.127191L17.896 0.122642L17.8983 0.121227L17.9215 0.102307L17.9915 0.0647066L17.9957 0.0621333L17.9975 0.0614834L18.0242 0.0470759L18.0964 0.0249065L18.1045 0.0219296L18.108 0.0213374L18.1378 0.0121709L18.2013 0.0058306L18.2189 0.00290875L18.2282 0.00314983L18.2597 0L18.3136 0.00537594L18.3358 0.00595508L18.3489 0.00890573L18.3816 0.0121695L18.4305 0.0271864L18.4518 0.0319504L18.4645 0.0376421L18.4953 0.0470759L18.5417 0.0720411L18.5635 0.0817738L25.8543 4.2498L25.8614 4.25241C25.8963 4.26925 25.9297 4.28947 25.9611 4.31293L26.0166 4.36373L26.02 4.36628L26.0217 4.3684L26.0484 4.39286C26.0751 4.42264 26.0991 4.4555 26.12 4.49132C26.1618 4.56296 26.1869 4.63957 26.1965 4.7168L26.1972 4.73946L26.1997 4.75219L26.1995 4.82703L26.1997 4.83253Z" fill="#20ECF6"/>
<path fill-rule="evenodd" clip-rule="evenodd" d="M43.7838 4.83253L43.7837 4.83347V4.83895C43.7814 4.86794 43.777 4.89692 43.7704 4.92567L43.7648 4.94378L43.7644 4.94589L43.7627 4.95024L43.7438 5.01094L43.7253 5.04899L43.7235 5.05357L43.7212 5.05728L43.7035 5.0934L43.6708 5.13802L43.6619 5.15228L43.6548 5.15974L43.6313 5.19187L43.5852 5.2337L43.5805 5.23873L43.5769 5.24131L43.5433 5.2718C43.5116 5.29526 43.4779 5.31547 43.4428 5.33231L43.4356 5.33492L36.0846 9.50292L36.0625 9.51271L36.0157 9.53764L35.9848 9.54708L35.9718 9.55278L35.9504 9.55757L35.9012 9.57257L35.8682 9.57583L35.855 9.57875L35.8326 9.57937L35.7783 9.58472L35.7464 9.5816L35.7371 9.58181L35.7194 9.57889L35.6553 9.57257L35.6253 9.5634L35.6216 9.56278L35.6135 9.55979L35.5409 9.53764L35.5138 9.52326L35.512 9.52257L35.5077 9.52L35.4372 9.48243L35.4139 9.46347L35.4115 9.46208L35.4065 9.45757L35.3469 9.40924L35.3263 9.38472L35.3235 9.38215L35.3188 9.37583L35.2724 9.32062L35.2544 9.28792L35.2513 9.28368L35.2476 9.27562L35.2162 9.21889L35.2044 9.18132L35.2005 9.17305L35.1974 9.15924L35.1806 9.10639L35.177 9.07104L35.1741 9.05819L35.1735 9.03653L35.1683 8.98569V0.599045L35.1735 0.548167L35.1741 0.526514L35.177 0.513667L35.1806 0.478317L35.1974 0.42551L35.2005 0.411678L35.2044 0.403371L35.2162 0.365869L35.2476 0.309114L35.2513 0.30104L35.2544 0.296828L35.2724 0.264113L35.3188 0.208877L35.3235 0.202572L35.3263 0.19999L35.3469 0.175456L35.4065 0.127191L35.4115 0.122642L35.4139 0.121227L35.4372 0.102307L35.5077 0.0647066L35.512 0.0621333L35.5138 0.0614834L35.5409 0.0470759L35.6135 0.0249065L35.6216 0.0219297L35.6253 0.0213374L35.6553 0.0121709L35.7194 0.0058306L35.7371 0.00290875L35.7464 0.00314983L35.7783 0L35.8326 0.00537594L35.855 0.00595508L35.8682 0.00890576L35.9012 0.0121696L35.9504 0.0271863L35.9718 0.0319504L35.9848 0.0376421L36.0157 0.0470759L36.0625 0.0720417L36.0846 0.0817736L43.4356 4.24981L43.4428 4.25242C43.4779 4.26925 43.5116 4.28947 43.5433 4.31292L43.5992 4.36372L43.6027 4.36628L43.6043 4.3684L43.6313 4.39285C43.6582 4.42264 43.6825 4.45551 43.7035 4.49132C43.7456 4.56295 43.7709 4.63957 43.7807 4.7168L43.7813 4.73946L43.7838 4.75219L43.7837 4.82703L43.7838 4.83253Z" fill="#20ECF6"/>
<path fill-rule="evenodd" clip-rule="evenodd" d="M64.194 15.9745C68.0007 16.0148 71.0293 16.5406 73.2806 17.5519C75.532 18.5632 77.1689 19.8187 78.1915 21.3185C79.2148 22.8183 79.7868 24.321 79.9082 25.8265H70.97C70.816 24.9524 70.2458 24.1097 69.2602 23.2983C68.2747 22.4869 66.4581 22.0524 63.8105 21.9949C61.5677 22.042 60.0761 22.4031 59.3356 23.0784C58.5951 23.7536 58.2541 24.4604 58.3127 25.1984C58.2275 26.0033 58.7016 26.6863 59.7351 27.2478C60.7686 27.8092 62.8729 28.3195 66.0479 28.7789C70.3347 29.4183 73.5568 30.2752 75.7142 31.3497C77.8716 32.4242 79.3052 33.6487 80.0149 35.0233C80.7239 36.3979 81.0509 37.855 80.9937 39.3949C81.0445 42.3888 79.8101 44.876 77.2904 46.8561C74.77 48.8363 70.6607 49.8635 64.9611 49.9378C60.3312 49.9223 56.5249 48.9969 53.5422 47.1618C50.5596 45.3267 48.7662 42.6749 48.1622 39.2063H57.1637C57.596 40.604 58.4878 41.7033 59.8394 42.5042C61.1909 43.3051 63.09 43.7135 65.5365 43.7291C68.0204 43.7016 69.7491 43.3483 70.7228 42.6691C71.696 41.9899 72.162 41.1497 72.1211 40.1485C72.2051 39.124 71.6536 38.2838 70.4669 37.6281C69.2802 36.9724 66.9549 36.4307 63.4908 36.0028C59.4767 35.4385 56.4551 34.6266 54.4259 33.5669C52.3968 32.5072 51.0454 31.3183 50.3718 30.0004C49.6981 28.6824 49.3876 27.354 49.44 26.015C49.4163 24.428 49.868 22.8718 50.795 21.3465C51.722 19.8211 53.2666 18.5539 55.4287 17.5449C57.5908 16.5358 60.5125 16.0124 64.194 15.9745Z" fill="#022A51"/>
<path fill-rule="evenodd" clip-rule="evenodd" d="M0.423714 16.8774H9.46295V49.0349H0.423714V16.8774Z" fill="#022A51"/>
<path fill-rule="evenodd" clip-rule="evenodd" d="M29.953 34.5601C26.9977 34.5562 24.8375 34.9255 23.4723 35.6678C22.1071 36.4103 21.4333 37.5494 21.4506 39.0852C21.4399 40.3435 21.9407 41.3936 22.9529 42.2355C23.9651 43.0774 25.5526 43.5147 27.7156 43.5474C31.0133 43.5095 33.3999 42.7526 34.8755 41.277C36.3512 39.8014 37.0757 37.8348 37.0491 35.3772V34.5601H29.953ZM30.1449 16.044C34.5824 16.0881 37.9374 16.6968 40.2097 17.8703C42.4821 19.0436 44.0055 20.5174 44.7802 22.2916C45.5548 24.0658 45.9143 25.8761 45.8586 27.7222V40.405C45.8653 42.4295 45.8999 44.2841 45.9625 45.969C46.025 47.6539 46.0757 48.7073 46.1142 49.1292H37.6236C37.4959 48.6392 37.4001 47.9886 37.3363 47.1772C37.2725 46.3658 37.2406 45.6994 37.2406 45.1781C36.359 46.6689 34.9421 47.8422 32.9897 48.6981C31.0372 49.5538 28.4694 49.9902 25.2863 50.0073C22.2746 49.972 19.8381 49.4431 17.9766 48.4204C16.1151 47.3977 14.7575 46.0922 13.9038 44.5042C13.05 42.9161 12.6291 41.2564 12.641 39.5251C12.6756 36.7636 13.4504 34.5987 14.9656 33.0306C16.4808 31.4624 18.5285 30.3583 21.1089 29.7181C23.6894 29.0779 26.5948 28.7689 29.8252 28.791H37.0491V27.5965C37.1103 26.106 36.6682 24.8434 35.7226 23.8088C34.777 22.774 32.9604 22.2344 30.2727 22.1899C27.8155 22.2279 26.1294 22.6549 25.2144 23.4708C24.2994 24.2867 23.748 25.2639 23.5603 26.402H14.4924C14.5553 24.9877 15.0322 23.4872 15.9232 21.9004C16.8141 20.3137 18.3797 18.954 20.6196 17.8213C22.8597 16.6886 26.0348 16.0962 30.1449 16.044Z" fill="#022A51"/>
<path fill-rule="evenodd" clip-rule="evenodd" d="M8.61552 4.83253L8.61538 4.83347V4.83895C8.61312 4.86794 8.60874 4.89692 8.60217 4.92567L8.59652 4.94378L8.59617 4.94589L8.59447 4.95024L8.57555 5.01094L8.55698 5.04899L8.55521 5.05357L8.55288 5.05728L8.53522 5.0934L8.50253 5.13802L8.49363 5.15228L8.48657 5.15974L8.46298 5.19187L8.41694 5.2337L8.41221 5.23873L8.4086 5.24131L8.37499 5.2718C8.34335 5.29526 8.30967 5.31547 8.2745 5.33231L8.26737 5.33492L0.91626 9.50292L0.894248 9.51271L0.847421 9.53764L0.816476 9.54708L0.803602 9.55278L0.782176 9.55757L0.732919 9.57257L0.699944 9.57583L0.68667 9.57875L0.664297 9.57937L0.609986 9.58472L0.578161 9.5816L0.568817 9.58181L0.551082 9.57889L0.487052 9.57257L0.456979 9.5634L0.453392 9.56278L0.44527 9.55979L0.372552 9.53764L0.34552 9.52326L0.34375 9.52257L0.339476 9.52L0.268937 9.48243L0.245587 9.46347L0.243236 9.46208L0.238225 9.45757L0.17866 9.40924L0.158048 9.38472L0.155205 9.38215L0.150582 9.37583L0.104177 9.32062L0.086093 9.28792L0.083007 9.28368L0.079303 9.27562L0.0479353 9.21889L0.0360821 9.18132L0.0322724 9.17305L0.0290839 9.15924L0.0123919 9.10639L0.00876382 9.07104L0.00580266 9.05819L0.00522132 9.03653L0 8.98569V0.599045L0.00522132 0.548167L0.00580266 0.526514L0.00876382 0.513667L0.0123919 0.478317L0.0290839 0.42551L0.0322724 0.411678L0.0360821 0.403371L0.0479353 0.365869L0.079303 0.309114L0.0830063 0.30104L0.086093 0.296828L0.104177 0.264113L0.150582 0.208877L0.155205 0.202572L0.158048 0.19999L0.17866 0.175456L0.238227 0.127191L0.243236 0.122642L0.245587 0.121227L0.268937 0.102307L0.339474 0.0647066L0.343751 0.0621333L0.34552 0.0614834L0.372552 0.0470759L0.44527 0.0249065L0.453393 0.0219297L0.456979 0.0213374L0.487052 0.0121709L0.551082 0.0058306L0.568817 0.00290875L0.578161 0.00314983L0.609986 0L0.664297 0.00537594L0.68667 0.00595508L0.699944 0.00890576L0.732919 0.0121696L0.782176 0.0271863L0.803602 0.0319504L0.816476 0.0376421L0.847421 0.0470759L0.894256 0.0720417L0.91626 0.0817736L8.26737 4.24981L8.2745 4.25242C8.30967 4.26925 8.34335 4.28947 8.37499 4.31292L8.43092 4.36372L8.43438 4.36628L8.43608 4.3684L8.46298 4.39285C8.48989 4.42264 8.51418 4.45551 8.53522 4.49132C8.57731 4.56295 8.60267 4.63957 8.61241 4.7168L8.61305 4.73946L8.61552 4.75219L8.61538 4.82703L8.61552 4.83253Z" fill="#20ECF6"/>
</g>
</g>
<defs>
<clipPath id="clip0_103_38">
<rect width="81" height="50" fill="white"/>
</clipPath>
</defs>
</svg>
