<svg width="51" height="32" viewBox="0 0 51 32" fill="none" xmlns="http://www.w3.org/2000/svg">
<g clip-path="url(#clip0_138_55)">
<mask id="mask0_138_55" style="mask-type:luminance" maskUnits="userSpaceOnUse" x="0" y="0" width="51" height="32">
<path d="M50.9778 0H0V32H50.9778V0Z" fill="white"/>
</mask>
<g mask="url(#mask0_138_55)">
<path d="M50.9778 0H0V32.0047H50.9778V0Z" fill="#20ECF6"/>
<path fill-rule="evenodd" clip-rule="evenodd" d="M16.4889 3.09282L16.4888 3.09342V3.09693C16.4874 3.11548 16.4846 3.13403 16.4805 3.15242L16.477 3.16402L16.4768 3.16537L16.4757 3.16815L16.4639 3.20701L16.4523 3.23135L16.4512 3.23428L16.4498 3.23666L16.4387 3.25978L16.4183 3.28834L16.4128 3.29746L16.4084 3.30223L16.3937 3.3228L16.3649 3.34957L16.362 3.35279L16.3597 3.35443L16.3387 3.37395C16.319 3.38896 16.298 3.4019 16.276 3.41268L16.2715 3.41435L11.683 6.08187L11.6693 6.08814L11.6401 6.10409L11.6207 6.11014L11.6127 6.11378L11.5993 6.11685L11.5686 6.12645L11.548 6.12854L11.5397 6.1304L11.5258 6.1308L11.4918 6.13422L11.472 6.13222L11.4662 6.13236L11.4551 6.13049L11.4151 6.12645L11.3963 6.12058L11.3941 6.12018L11.389 6.11827L11.3436 6.10409L11.3268 6.09489L11.3257 6.09445L11.323 6.0928L11.279 6.06876L11.2644 6.05662L11.2629 6.05574L11.2598 6.0528L11.2226 6.02191L11.2098 6.00622L11.208 6.00458L11.2051 6.00054L11.1761 5.9652L11.1648 5.94427L11.1629 5.94156L11.1606 5.9364L11.141 5.90005L11.1336 5.87605L11.1312 5.87076L11.1293 5.86191L11.1188 5.82809L11.1166 5.80547L11.1147 5.79725L11.1143 5.78338L11.1111 5.75085V0.383389L11.1143 0.350827L11.1147 0.336969L11.1166 0.328747L11.1188 0.306122L11.1293 0.272326L11.1312 0.263474L11.1336 0.258158L11.141 0.234157L11.1606 0.197833L11.1629 0.192665L11.1648 0.18997L11.1761 0.169033L11.2051 0.133681L11.208 0.129646L11.2098 0.127993L11.2226 0.112291L11.2598 0.0814023L11.2629 0.0784908L11.2644 0.077585L11.279 0.0654766L11.323 0.0414122L11.3257 0.0397653L11.3268 0.0393494L11.3436 0.0301286L11.389 0.0159402L11.3941 0.014035L11.3963 0.0136559L11.4151 0.00778936L11.4551 0.00373159L11.4662 0.0018616L11.472 0.00201589L11.4918 0L11.5258 0.0034406L11.5397 0.00381125L11.548 0.00569967L11.5686 0.00778851L11.5993 0.0173993L11.6127 0.0204482L11.6207 0.024091L11.6401 0.0301286L11.6693 0.0461063L11.683 0.0523352L16.2715 2.71987L16.276 2.72154C16.298 2.73232 16.319 2.74526 16.3387 2.76027L16.3737 2.79278L16.3758 2.79442L16.3769 2.79578L16.3937 2.81143C16.4105 2.83049 16.4256 2.85152 16.4387 2.87445C16.465 2.92029 16.4808 2.96933 16.4869 3.01875L16.4873 3.03326L16.4889 3.0414L16.4888 3.0893L16.4889 3.09282Z" fill="white"/>
<path fill-rule="evenodd" clip-rule="evenodd" d="M27.5556 3.09282L27.5555 3.09342V3.09693C27.5541 3.11548 27.5513 3.13403 27.5472 3.15243L27.5436 3.16402L27.5434 3.16537L27.5423 3.16815L27.5304 3.207L27.5187 3.23135L27.5176 3.23428L27.5162 3.23666L27.5051 3.25978L27.4845 3.28833L27.4789 3.29746L27.4744 3.30224L27.4596 3.3228L27.4306 3.34957L27.4276 3.35279L27.4254 3.35444L27.4042 3.37395C27.3843 3.38896 27.3631 3.4019 27.341 3.41268L27.3365 3.41435L22.71 6.08187L22.6962 6.08813L22.6667 6.10409L22.6472 6.11013L22.6391 6.11378L22.6256 6.11684L22.5946 6.12644L22.5739 6.12853L22.5655 6.1304L22.5515 6.1308L22.5173 6.13422L22.4972 6.13222L22.4914 6.13236L22.4802 6.13049L22.4399 6.12644L22.421 6.12058L22.4187 6.12018L22.4136 6.11827L22.3679 6.10409L22.3508 6.09489L22.3497 6.09444L22.347 6.0928L22.3026 6.06876L22.2879 6.05662L22.2864 6.05573L22.2833 6.05284L22.2458 6.02191L22.2328 6.00622L22.2311 6.00458L22.2281 6.00053L22.1989 5.9652L22.1875 5.94427L22.1856 5.94156L22.1833 5.9364L22.1635 5.90009L22.1561 5.87604L22.1537 5.87076L22.1517 5.86191L22.1411 5.82809L22.1389 5.80547L22.137 5.79724L22.1367 5.78338L22.1334 5.75084V0.383389L22.1367 0.350827L22.137 0.336969L22.1389 0.328747L22.1411 0.306123L22.1517 0.272326L22.1537 0.263474L22.1561 0.258158L22.1635 0.234156L22.1833 0.197833L22.1856 0.192666L22.1875 0.18997L22.1989 0.169032L22.2281 0.133681L22.2311 0.129646L22.2328 0.127993L22.2458 0.112292L22.2833 0.0814022L22.2864 0.0784907L22.2879 0.0775853L22.3026 0.0654764L22.347 0.0414122L22.3497 0.0397653L22.3508 0.0393494L22.3679 0.0301286L22.4136 0.0159402L22.4187 0.014035L22.421 0.0136559L22.4399 0.00778938L22.4802 0.00373159L22.4914 0.0018616L22.4972 0.00201589L22.5173 0L22.5515 0.0034406L22.5655 0.00381125L22.5739 0.00569969L22.5946 0.00778853L22.6256 0.0173992L22.6391 0.0204483L22.6472 0.0240909L22.6667 0.0301286L22.6962 0.0461067L22.71 0.0523351L27.3365 2.71988L27.341 2.72155C27.3631 2.73232 27.3843 2.74526 27.4042 2.76027L27.4394 2.79278L27.4416 2.79442L27.4427 2.79578L27.4596 2.81143C27.4765 2.83049 27.4918 2.85152 27.5051 2.87444C27.5315 2.92029 27.5475 2.96932 27.5536 3.01875L27.554 3.03325L27.5556 3.0414L27.5555 3.0893L27.5556 3.09282Z" fill="white"/>
<path fill-rule="evenodd" clip-rule="evenodd" d="M40.4008 10.2237C42.7966 10.2495 44.7026 10.586 46.1195 11.2332C47.5364 11.8804 48.5667 12.684 49.2102 13.6439C49.8542 14.6037 50.2142 15.5654 50.2907 16.529H44.6653C44.5684 15.9695 44.2095 15.4302 43.5893 14.9109C42.969 14.3916 41.8257 14.1136 40.1595 14.0767C38.7479 14.1069 37.8092 14.338 37.3431 14.7702C36.8771 15.2023 36.6625 15.6546 36.6994 16.127C36.6458 16.6421 36.9442 17.0792 37.5946 17.4386C38.245 17.7979 39.5694 18.1245 41.5676 18.4185C44.2655 18.8277 46.2933 19.3761 47.6511 20.0638C49.0089 20.7515 49.9111 21.5352 50.3578 22.4149C50.804 23.2946 51.0098 24.2272 50.9738 25.2127C51.0058 27.1288 50.2289 28.7206 48.6431 29.9879C47.0569 31.2552 44.4707 31.9126 40.8836 31.9602C37.9698 31.9503 35.5743 31.358 33.6971 30.1836C31.8199 29.0091 30.6912 27.3119 30.3111 25.092H35.9763C36.2483 25.9866 36.8096 26.6901 37.6602 27.2027C38.5108 27.7153 39.706 27.9766 41.2457 27.9866C42.809 27.969 43.8969 27.7429 44.5098 27.3082C45.1222 26.8736 45.4155 26.3358 45.3898 25.6951C45.4427 25.0393 45.0955 24.5016 44.3487 24.082C43.6019 23.6624 42.1384 23.3156 39.9583 23.0418C37.432 22.6807 35.5303 22.161 34.2532 21.4828C32.9762 20.8046 32.1257 20.0437 31.7017 19.2002C31.2778 18.3567 31.0823 17.5065 31.1153 16.6496C31.1004 15.6339 31.3847 14.638 31.9681 13.6618C32.5515 12.6855 33.5236 11.8745 34.8843 11.2288C36.2451 10.5829 38.0839 10.248 40.4008 10.2237Z" fill="#022A51"/>
<path fill-rule="evenodd" clip-rule="evenodd" d="M0.266663 10.8015H5.95555V31.3823H0.266663V10.8015Z" fill="#022A51"/>
<path fill-rule="evenodd" clip-rule="evenodd" d="M18.8511 22.1185C16.9912 22.116 15.6316 22.3523 14.7725 22.8274C13.9133 23.3026 13.4892 24.0316 13.5001 25.0145C13.4934 25.8198 13.8085 26.4919 14.4455 27.0307C15.0826 27.5695 16.0817 27.8494 17.443 27.8704C19.5184 27.8461 21.0204 27.3617 21.9491 26.4173C22.8779 25.4729 23.3338 24.2143 23.3171 22.6414V22.1185H18.8511ZM18.9719 10.2682C21.7647 10.2964 23.8761 10.686 25.3062 11.437C26.7363 12.1879 27.6951 13.1312 28.1827 14.2666C28.6702 15.4021 28.8964 16.5607 28.8614 17.7422V25.8592C28.8656 27.1549 28.8874 28.3418 28.9268 29.4202C28.9661 30.4985 28.998 31.1727 29.0223 31.4427H23.6787C23.5983 31.1291 23.538 30.7127 23.4979 30.1934C23.4577 29.6741 23.4376 29.2476 23.4376 28.914C22.8828 29.8681 21.991 30.619 20.7623 31.1668C19.5335 31.7145 17.9174 31.9937 15.9141 32.0047C14.0187 31.9821 12.4853 31.6436 11.3137 30.9891C10.1422 30.3345 9.28772 29.499 8.75043 28.4827C8.21314 27.4663 7.94825 26.4041 7.95572 25.2961C7.9775 23.5287 8.46514 22.1432 9.4187 21.1396C10.3723 20.136 11.6611 19.4293 13.2851 19.0196C14.9091 18.6099 16.7376 18.4121 18.7707 18.4262H23.3171V17.6618C23.3556 16.7078 23.0774 15.8998 22.4823 15.2376C21.8871 14.5754 20.7438 14.23 19.0523 14.2015C17.5059 14.2258 16.4447 14.4991 15.8688 15.0213C15.293 15.5435 14.946 16.1689 14.8278 16.8973H9.12088C9.16048 15.9921 9.46065 15.0318 10.0214 14.0163C10.5821 13.0008 11.5674 12.1306 12.9771 11.4057C14.3869 10.6807 16.3851 10.3016 18.9719 10.2682Z" fill="#022A51"/>
<path fill-rule="evenodd" clip-rule="evenodd" d="M5.42222 3.09282L5.42213 3.09342V3.09693C5.42071 3.11548 5.41796 3.13403 5.41382 3.15243L5.41027 3.16402L5.41005 3.16537L5.40898 3.16815L5.39707 3.207L5.38538 3.23135L5.38427 3.23428L5.3828 3.23666L5.37169 3.25978L5.35111 3.28833L5.34551 3.29746L5.34107 3.30224L5.32622 3.3228L5.29725 3.34957L5.29427 3.35279L5.292 3.35444L5.27084 3.37395C5.25093 3.38896 5.22973 3.4019 5.2076 3.41268L5.20311 3.41435L0.576653 6.08187L0.5628 6.08813L0.533329 6.10409L0.513853 6.11013L0.505751 6.11378L0.492267 6.11684L0.461267 6.12644L0.440513 6.12853L0.43216 6.1304L0.418079 6.1308L0.383898 6.13422L0.363869 6.13222L0.357988 6.13236L0.346826 6.13049L0.306529 6.12644L0.287602 6.12058L0.285344 6.12018L0.280233 6.11827L0.234468 6.10409L0.217455 6.09489L0.216341 6.09444L0.213651 6.0928L0.169257 6.06876L0.154561 6.05662L0.153082 6.05573L0.149928 6.05284L0.11244 6.02191L0.0994685 6.00622L0.0976791 6.00458L0.0947698 6.00053L0.0655645 5.9652L0.0541831 5.94427L0.0522409 5.94156L0.0499098 5.9364L0.0301683 5.90009L0.0227085 5.87604L0.0203108 5.87076L0.0183041 5.86191L0.00779893 5.82809L0.00551556 5.80547L0.00365194 5.79724L0.00328607 5.78338L0 5.75084V0.383389L0.00328607 0.350827L0.00365194 0.336969L0.00551556 0.328747L0.00779893 0.306123L0.0183041 0.272326L0.0203108 0.263474L0.0227085 0.258158L0.0301683 0.234156L0.0499098 0.197833L0.0522404 0.192666L0.0541831 0.18997L0.0655645 0.169032L0.0947698 0.133681L0.0976791 0.129646L0.0994685 0.127993L0.11244 0.112292L0.149929 0.0814022L0.153082 0.0784907L0.154561 0.0775853L0.169257 0.0654764L0.21365 0.0414122L0.216341 0.0397653L0.217455 0.0393494L0.234468 0.0301286L0.280233 0.0159402L0.285345 0.014035L0.287602 0.0136559L0.306529 0.00778938L0.346826 0.00373159L0.357988 0.0018616L0.363869 0.00201589L0.383898 0L0.418079 0.0034406L0.43216 0.00381125L0.440513 0.00569969L0.461267 0.00778853L0.492267 0.0173992L0.505751 0.0204483L0.513853 0.0240909L0.533329 0.0301286L0.562805 0.0461067L0.576653 0.0523351L5.20311 2.71988L5.2076 2.72155C5.22973 2.73232 5.25093 2.74526 5.27084 2.76027L5.30605 2.79278L5.30822 2.79442L5.30929 2.79578L5.32622 2.81143C5.34316 2.83049 5.35845 2.85152 5.37169 2.87444C5.39818 2.92029 5.41413 2.96932 5.42027 3.01875L5.42067 3.03325L5.42222 3.0414L5.42213 3.0893L5.42222 3.09282Z" fill="white"/>
</g>
</g>
<defs>
<clipPath id="clip0_138_55">
<rect width="50.9778" height="32" fill="white"/>
</clipPath>
</defs>
</svg>
