<svg width="16" height="16" viewBox="0 0 16 16" fill="none" xmlns="http://www.w3.org/2000/svg">
<g clip-path="url(#clip0_475_976)">
<mask id="mask0_475_976" style="mask-type:luminance" maskUnits="userSpaceOnUse" x="0" y="0" width="16" height="16">
<path d="M16 0H0V16H16V0Z" fill="white"/>
</mask>
<g mask="url(#mask0_475_976)">
<path fill-rule="evenodd" clip-rule="evenodd" d="M13.1206 9.04325C13.2668 9.04325 13.4131 9.09905 13.5247 9.21063C13.7478 9.43381 13.7478 9.79565 13.5247 10.0188L10.0225 13.521C9.79935 13.7441 9.43751 13.7441 9.21433 13.521L6.78976 11.0964C6.5666 10.8732 6.5666 10.5114 6.78976 10.2882C7.01295 10.065 7.37478 10.065 7.59796 10.2882L9.61843 12.3087L12.7165 9.21063C12.8281 9.09905 12.9743 9.04326 13.1206 9.04325ZM2.09713 1.14295C1.57015 1.14295 1.14295 1.57016 1.14295 2.09713V13.9042C1.14295 14.4312 1.57015 14.8584 2.09713 14.8584H13.9042C14.4312 14.8584 14.8584 14.4312 14.8584 13.9042V2.09713C14.8584 1.57015 14.4312 1.14295 13.9042 1.14295L2.09713 1.14295ZM1.67486 1.90735e-06L14.3265 0C15.2515 -6.35783e-07 16.0013 0.749861 16.0013 1.67486V14.3265C16.0013 15.2515 15.2515 16.0013 14.3265 16.0013L1.67486 16.0013C0.749862 16.0013 0 15.2515 0 14.3265V1.67486C0 0.749864 0.749862 3.17892e-06 1.67486 1.90735e-06Z" fill="#20ECF6"/>
</g>
</g>
<defs>
<clipPath id="clip0_475_976">
<rect width="16" height="16" fill="white"/>
</clipPath>
</defs>
</svg>
