<svg width="16" height="16" viewBox="0 0 16 16" fill="none" xmlns="http://www.w3.org/2000/svg">
<g clip-path="url(#clip0_475_1004)">
<mask id="mask0_475_1004" style="mask-type:luminance" maskUnits="userSpaceOnUse" x="0" y="0" width="16" height="16">
<path d="M16 0H0V16H16V0Z" fill="white"/>
</mask>
<g mask="url(#mask0_475_1004)">
<path fill-rule="evenodd" clip-rule="evenodd" d="M13.0999 11.3334C13.4129 11.3334 13.6666 11.5945 13.6666 11.9167C13.6666 12.2389 13.4129 12.5 13.0999 12.5C12.7869 12.5 12.5332 12.2389 12.5332 11.9167C12.5332 11.5945 12.7869 11.3334 13.0999 11.3334ZM10.5711 11.3334C10.8841 11.3334 11.1378 11.5945 11.1378 11.9167C11.1378 12.2389 10.8841 12.5 10.5711 12.5C10.2581 12.5 10.0044 12.2389 10.0044 11.9167C10.0044 11.5945 10.2581 11.3334 10.5711 11.3334ZM7.99998 11.3334C8.31298 11.3334 8.56671 11.5945 8.56671 11.9167C8.56671 12.2389 8.31298 12.5 7.99998 12.5C7.68698 12.5 7.43325 12.2389 7.43325 11.9167C7.43325 11.5945 7.68698 11.3334 7.99998 11.3334ZM5.44935 11.3334C5.76235 11.3334 6.01608 11.5945 6.01608 11.9167C6.01608 12.2389 5.76235 12.5 5.44935 12.5C5.13636 12.5 4.88261 12.2389 4.88261 11.9167C4.88261 11.5945 5.13636 11.3334 5.44935 11.3334ZM2.90005 11.3334C3.21305 11.3334 3.46678 11.5945 3.46678 11.9167C3.46678 12.2389 3.21305 12.5 2.90005 12.5C2.58705 12.5 2.33331 12.2389 2.33331 11.9167C2.33331 11.5945 2.58705 11.3334 2.90005 11.3334Z" fill="#20ECF6"/>
<path fill-rule="evenodd" clip-rule="evenodd" d="M3.59155 13.7154C3.5017 13.7154 3.42885 13.7882 3.42885 13.8781L3.42884 14.6956C3.42885 14.7855 3.50169 14.8583 3.59156 14.8584L12.4098 14.8583C12.4996 14.8583 12.5725 14.7855 12.5725 14.6956L12.5725 13.8781C12.5725 13.7882 12.4996 13.7154 12.4098 13.7154L3.59155 13.7154ZM1.71375 11.4098C1.39814 11.4098 1.14229 11.6657 1.14228 11.9813C1.14228 12.2969 1.39814 12.5528 1.71376 12.5528H14.2862C14.6019 12.5528 14.8577 12.2969 14.8577 11.9813C14.8577 11.6657 14.6019 11.4098 14.2862 11.4098L1.71375 11.4098ZM1.71442 10.2669L14.2869 10.2669C15.2338 10.2669 16.0013 11.0345 16.0013 11.9813C16.0013 12.9282 15.2337 13.6957 14.2869 13.6957L13.7141 13.6957L13.7141 15.5047C13.7141 15.779 13.4918 16.0013 13.2175 16.0013L2.7825 16.0013C2.50823 16.0013 2.2859 15.779 2.2859 15.5047L2.2859 13.6957L1.71443 13.6958C0.76757 13.6957 -7.37583e-06 12.9282 -1.24545e-05 11.9813C-8.82989e-06 11.0345 0.767568 10.2669 1.71442 10.2669ZM7.42853 0.0367844H8.57147V4.6014L9.99237 6.02229L10.0262 6.04472C10.2493 6.26789 10.2493 6.62973 10.0261 6.85291L9.21796 7.6611C8.99478 7.88427 8.63295 7.88427 8.40978 7.6611C8.18661 7.43792 8.18659 7.07608 8.40977 6.85291L8.80819 6.45449L7.99433 5.64063L7.18898 6.44598L7.59591 6.85291C7.81909 7.07608 7.81909 7.43793 7.59591 7.66111C7.37274 7.88428 7.0109 7.88427 6.78772 7.6611L5.99078 6.86415L5.97384 6.85292C5.75067 6.62974 5.75068 6.26791 5.97385 6.04473L7.42853 4.59006L7.42853 0.0367844Z" fill="#20ECF6"/>
</g>
</g>
<defs>
<clipPath id="clip0_475_1004">
<rect width="16" height="16" fill="white"/>
</clipPath>
</defs>
</svg>
