<svg width="16" height="16" viewBox="0 0 16 16" fill="none" xmlns="http://www.w3.org/2000/svg">
<g clip-path="url(#clip0_475_730)">
<mask id="mask0_475_730" style="mask-type:luminance" maskUnits="userSpaceOnUse" x="0" y="0" width="16" height="16">
<path d="M16 0H0V16H16V0Z" fill="white"/>
</mask>
<g mask="url(#mask0_475_730)">
<path fill-rule="evenodd" clip-rule="evenodd" d="M5.53109 8.38095C3.74895 8.38095 2.30423 9.8307 2.30423 11.6191L2.31585 11.7346L2.30423 11.7923V13.7136C2.30423 14.3444 2.81387 14.8558 3.44252 14.8558H5.50503L5.53109 14.8572H10.4663L10.4923 14.8558H12.5549C13.1835 14.8558 13.6931 14.3444 13.6931 13.7136V11.7923L13.6815 11.7346L13.6931 11.6191C13.6931 9.8307 12.2484 8.38095 10.4663 8.38095H5.53109ZM5.5324 7.2381H10.4676C12.8787 7.2381 14.8333 9.19952 14.8333 11.6191L14.8245 11.7067L14.8333 11.7943V14.4311C14.8333 15.2968 14.1339 15.9987 13.2712 15.9987H10.4937L10.4676 16H5.5324L5.50635 15.9987H2.72882C1.86607 15.9987 1.16667 15.2968 1.16667 14.4311V11.7943L1.17547 11.7067L1.16667 11.6191C1.16667 9.19952 3.12127 7.2381 5.5324 7.2381ZM8 1.14286C6.95168 1.14286 6.10185 1.99565 6.10185 3.04762C6.10185 4.09958 6.95168 4.95238 8 4.95238C9.04832 4.95238 9.89815 4.09958 9.89815 3.04762C9.89815 1.99565 9.04832 1.14286 8 1.14286ZM8 0C9.6773 0 11.037 1.36447 11.037 3.04762C11.037 4.73077 9.6773 6.09523 8 6.09523C6.32268 6.09523 4.96297 4.73077 4.96297 3.04762C4.96297 1.36447 6.32268 0 8 0Z" fill="white"/>
</g>
</g>
<defs>
<clipPath id="clip0_475_730">
<rect width="16" height="16" fill="white"/>
</clipPath>
</defs>
</svg>
