<svg width="16" height="16" viewBox="0 0 16 16" fill="none" xmlns="http://www.w3.org/2000/svg">
<g clip-path="url(#clip0_475_962)">
<mask id="mask0_475_962" style="mask-type:luminance" maskUnits="userSpaceOnUse" x="0" y="0" width="16" height="16">
<path d="M16 0H0V16H16V0Z" fill="white"/>
</mask>
<g mask="url(#mask0_475_962)">
<path fill-rule="evenodd" clip-rule="evenodd" d="M4.01387 10.8572H8.96412C9.27862 10.8572 9.53357 11.113 9.53357 11.4286C9.53357 11.7442 9.27862 12 8.96412 12H4.01387C3.69939 12 3.44444 11.7442 3.44444 11.4286C3.44444 11.113 3.69939 10.8572 4.01387 10.8572ZM4.01387 8.57143H11.9861C12.3006 8.57143 12.5555 8.82727 12.5555 9.14285C12.5555 9.45845 12.3006 9.71428 11.9861 9.71428H4.01387C3.69939 9.71428 3.44444 9.45845 3.44444 9.14285C3.44444 8.82727 3.69939 8.57143 4.01387 8.57143ZM4.01387 6.28572H11.9861C12.3006 6.28572 12.5555 6.54155 12.5555 6.85715C12.5555 7.17273 12.3006 7.42857 11.9861 7.42857H4.01387C3.69939 7.42857 3.44444 7.17273 3.44444 6.85715C3.44444 6.54155 3.69939 6.28572 4.01387 6.28572ZM3.09787 2.66667C2.66029 2.66667 2.30554 3.02263 2.30554 3.46175V14.0621C2.30554 14.5012 2.66029 14.8572 3.09787 14.8572H12.9021C13.3397 14.8572 13.6944 14.5012 13.6944 14.0621V3.46175C13.6944 3.02263 13.3397 2.66667 12.9021 2.66667H11.7956V3.31345C11.7956 3.79782 11.4043 4.19048 10.9216 4.19048H5.07701C4.59432 4.19048 4.20304 3.79782 4.20304 3.31345V2.66667H3.09787ZM5.75151 1.14286C5.52529 1.14286 5.34192 1.32687 5.34192 1.55387V2.6366C5.34192 2.8636 5.52529 3.04762 5.75151 3.04762H10.2472C10.4734 3.04762 10.6567 2.8636 10.6567 2.6366V1.55387C10.6567 1.32687 10.4734 1.14286 10.2472 1.14286H5.75151ZM5.07701 0H10.9216C11.4043 0 11.7956 0.392655 11.7956 0.877023V1.52381H13.4028C14.1929 1.52381 14.8333 2.1665 14.8333 2.95928V14.5645C14.8333 15.3573 14.1929 16 13.4028 16H2.59714C1.80711 16 1.16666 15.3573 1.16666 14.5645V2.95928C1.16666 2.1665 1.80711 1.52381 2.59714 1.52381H4.20304V0.877023C4.20304 0.392655 4.59432 0 5.07701 0Z" fill="#20ECF6"/>
</g>
</g>
<defs>
<clipPath id="clip0_475_962">
<rect width="16" height="16" fill="white"/>
</clipPath>
</defs>
</svg>
