<svg width="16" height="16" viewBox="0 0 16 16" fill="none" xmlns="http://www.w3.org/2000/svg">
<g clip-path="url(#clip0_475_1019)">
<mask id="mask0_475_1019" style="mask-type:luminance" maskUnits="userSpaceOnUse" x="0" y="0" width="16" height="16">
<path d="M16 0H0V16H16V0Z" fill="white"/>
</mask>
<g mask="url(#mask0_475_1019)">
<path fill-rule="evenodd" clip-rule="evenodd" d="M8 6.28557C7.05315 6.28557 6.28557 7.05315 6.28557 8C6.28557 8.94685 7.05315 9.71443 8 9.71443C8.94685 9.71443 9.71442 8.94685 9.71442 8C9.71442 7.05315 8.94685 6.28557 8 6.28557ZM8 5.14262C9.57808 5.14262 10.8574 6.42192 10.8574 8C10.8574 9.57808 9.57808 10.8574 8 10.8574C6.4219 10.8574 5.14262 9.57808 5.14262 8C5.14262 6.42192 6.4219 5.14262 8 5.14262ZM7.65445 1.14144L7.5578 1.16096L7.54327 1.16005L7.51623 1.16934L7.432 1.18635L7.39572 1.21082L7.3361 1.23133C7.20945 1.30446 7.11068 1.4259 7.06983 1.57833L6.90292 2.20128L6.81055 2.21538C6.04172 2.37272 5.3273 2.67945 4.69898 3.10393L4.67108 3.12478L4.11352 2.80288C4.04518 2.76343 3.9721 2.7397 3.89842 2.73055C3.82475 2.72142 3.7505 2.72687 3.67987 2.74578L3.62322 2.77343L3.58027 2.78178L3.50867 2.82933L3.48298 2.84187L3.47335 2.85278L3.39122 2.90733L2.90587 3.39267L2.85782 3.46505L2.84727 3.47435L2.83515 3.49917L2.78033 3.58172L2.7707 3.63125L2.75118 3.67123L2.74463 3.7652L2.73848 3.79677L2.7414 3.81167L2.73595 3.88978C2.74508 3.96345 2.76882 4.03655 2.80828 4.10488L3.13065 4.66325L3.10393 4.69898C2.67945 5.3273 2.3727 6.04172 2.21538 6.81055L2.20105 6.90443L1.57634 7.07183C1.42391 7.11267 1.30247 7.21143 1.22934 7.3381L1.20883 7.3977L1.18437 7.43398L1.16736 7.51823L1.15806 7.54525L1.15896 7.55978L1.13945 7.65643V8.34282L1.15664 8.42797L1.15576 8.44202L1.16475 8.46813L1.18437 8.56525L1.21257 8.60708L1.22705 8.64917L1.28885 8.72023L1.30683 8.7469L1.31942 8.7554L1.37082 8.81448C1.42937 8.86012 1.49784 8.89502 1.57406 8.91543L2.19892 9.08287L2.21538 9.19078C2.3727 9.95962 2.67945 10.674 3.10393 11.3024L3.12258 11.3273L2.80088 11.8845C2.72198 12.0212 2.70595 12.1769 2.7438 12.3181L2.77145 12.3748L2.7798 12.4178L2.82735 12.4893L2.83988 12.515L2.8508 12.5247L2.90535 12.6068L3.39068 13.0921L3.46307 13.1402L3.47237 13.1508L3.49718 13.1628L3.57973 13.2177L3.62927 13.2273L3.66925 13.2468L3.76322 13.2534L3.79478 13.2595L3.80968 13.2566L3.8878 13.2621C3.96147 13.2529 4.03457 13.2292 4.1029 13.1897L4.65988 12.8682L4.69898 12.8974C5.3273 13.3219 6.04172 13.6286 6.81055 13.7859L6.90328 13.8001L7.06983 14.4217C7.11068 14.5741 7.20945 14.6955 7.3361 14.7687L7.39572 14.7892L7.432 14.8137L7.51623 14.8307L7.54327 14.84L7.5578 14.8391L7.65445 14.8586H8.34082L8.42598 14.8414L8.44002 14.8422L8.46613 14.8333L8.56327 14.8137L8.6051 14.7854L8.64718 14.771L8.71825 14.7092L8.74492 14.6912L8.7534 14.6786L8.81248 14.6272C8.85812 14.5686 8.89302 14.5002 8.91345 14.424L9.07987 13.8029L9.19077 13.7859L9.36275 13.7417L9.3711 13.7388L9.37337 13.739L9.7567 13.6404C10.2074 13.5002 10.635 13.3075 11.0322 13.0694L11.076 13.0408L11.0821 13.0339L11.1101 13.0185L11.3382 12.8694L11.8931 13.1897C11.9615 13.2292 12.0345 13.2529 12.1082 13.2621L12.1863 13.2566L12.2012 13.2595L12.2328 13.2534L12.3268 13.2468L12.3668 13.2273L12.4163 13.2177L12.4988 13.1628L12.5237 13.1508L12.533 13.1402L12.6053 13.0921L13.0907 12.6068L13.1452 12.5247L13.1561 12.515L13.1687 12.4893L13.2162 12.4178L13.2246 12.3748L13.2522 12.3181C13.2901 12.1769 13.274 12.0212 13.1951 11.8845L12.873 11.3266L12.9947 11.1535L13.0221 11.1062L13.0339 11.0821L13.0384 11.0781L13.2269 10.7525C13.4437 10.3416 13.6134 9.90208 13.729 9.44105L13.7957 9.08323L14.422 8.91543C14.4982 8.895 14.5667 8.86012 14.6252 8.81447L14.6766 8.7554L14.6892 8.7469L14.7072 8.72023L14.769 8.64917L14.7834 8.60708L14.8117 8.56525L14.8313 8.46812L14.8403 8.442L14.8394 8.42797L14.8566 8.3428V7.65643L14.8371 7.55978L14.838 7.54525L14.8287 7.51822L14.8117 7.43398L14.7872 7.3977L14.7667 7.3381C14.6936 7.21143 14.5721 7.11267 14.4197 7.07183L13.8005 6.90592L13.7859 6.81055C13.6286 6.04172 13.3219 5.3273 12.8974 4.69898L12.8677 4.65925L13.1878 4.10488C13.2272 4.03655 13.2509 3.96345 13.2601 3.88978L13.2546 3.81167L13.2575 3.79677L13.2514 3.7652L13.2448 3.67123L13.2253 3.63125L13.2157 3.58172L13.1609 3.49917L13.1488 3.47435L13.1382 3.46505L13.0902 3.39267L12.6048 2.90733L12.5227 2.85278L12.513 2.84187L12.4874 2.82933L12.4158 2.78178L12.3728 2.77343L12.3161 2.74578C12.2455 2.72687 12.1713 2.72142 12.0976 2.73055C12.0239 2.7397 11.9508 2.76343 11.8825 2.80288L11.3279 3.12307L11.3023 3.10393C10.674 2.67945 9.9596 2.37272 9.19077 2.21538L9.08023 2.19852L8.91345 1.57605C8.89302 1.49983 8.85812 1.43136 8.81248 1.3728L8.7534 1.32142L8.74492 1.30882L8.71825 1.29085L8.64718 1.22904L8.6051 1.21457L8.56327 1.18635L8.46613 1.16674L8.44002 1.15776L8.42598 1.15864L8.34082 1.14144L7.65445 1.14144ZM6.84805 0H9.13395C9.21285 0 9.28802 0.015991 9.3564 0.0449107L9.42453 0.0908545L9.4396 0.0960377L9.46505 0.118166L9.53805 0.16738L9.5613 0.201862L9.60492 0.239798L9.65542 0.34146L9.66052 0.349032L9.66143 0.353593L9.70587 0.44304L9.91475 1.22258L10.0966 1.26933C10.3724 1.35514 10.6411 1.45744 10.9013 1.57508L11.416 1.84658L12.1246 1.43747L12.2193 1.40564L12.2232 1.40306L12.2321 1.40132L12.3397 1.36514L12.3974 1.36916L12.4382 1.36121L12.5247 1.37804L12.5583 1.38038L12.5726 1.38736L12.6533 1.40306C12.7221 1.43096 12.7865 1.47281 12.8423 1.5286L14.4587 3.14498C14.5145 3.20077 14.5563 3.26523 14.5842 3.33403L14.5999 3.4147L14.6069 3.42902L14.6092 3.46265L14.6261 3.54907L14.6181 3.58988L14.6221 3.64757L14.586 3.75515L14.5842 3.76412L14.5816 3.76798L14.5498 3.86265L14.1442 4.56525L14.4263 5.10007C14.5439 5.36025 14.6462 5.62887 14.732 5.90475L14.776 6.07587L15.557 6.28513L15.6464 6.32955L15.651 6.33048L15.6585 6.33558L15.7602 6.38608L15.7981 6.4297L15.8326 6.45295L15.8818 6.52595L15.904 6.5514L15.9092 6.56647L15.9551 6.6346C15.984 6.70297 16 6.77813 16 6.85705V9.14295C16 9.22185 15.984 9.29702 15.9551 9.3654L15.9091 9.43355L15.9039 9.4486L15.8819 9.47403L15.8326 9.54705L15.7981 9.5703L15.7602 9.61392L15.6585 9.66442L15.651 9.66952L15.6464 9.67043L15.5569 9.71487L14.7764 9.92403L14.732 10.0966C14.6462 10.3724 14.5439 10.6411 14.4263 10.9013L14.1493 11.4263L14.5562 12.131L14.588 12.2256L14.5906 12.2295L14.5923 12.2385L14.6285 12.3461L14.6245 12.4038L14.6324 12.4446L14.6156 12.531L14.6133 12.5646L14.6063 12.579L14.5906 12.6596C14.5627 12.7284 14.5208 12.7929 14.465 12.8487L12.8487 14.465C12.7929 14.5208 12.7284 14.5627 12.6596 14.5906L12.5789 14.6063L12.5646 14.6133L12.531 14.6156L12.4446 14.6324L12.4037 14.6245L12.3461 14.6285L12.2385 14.5923L12.2295 14.5906L12.2256 14.588L12.131 14.5562L11.4263 14.1493L10.9013 14.4263C10.6411 14.5439 10.3724 14.6462 10.0966 14.732L9.91437 14.7789L9.70587 15.557L9.66143 15.6464L9.66052 15.651L9.65542 15.6585L9.60492 15.7602L9.56128 15.7981L9.53803 15.8326L9.46505 15.8818L9.4396 15.904L9.42453 15.9092L9.3564 15.9551C9.28802 15.984 9.21285 16 9.13395 16H6.84805C6.76913 16 6.69397 15.984 6.6256 15.9551L6.55743 15.9091L6.54238 15.9039L6.51697 15.8819L6.44395 15.8326L6.4207 15.7981L6.37708 15.7602L6.32658 15.6585L6.32148 15.651L6.32055 15.6464L6.27612 15.5569L6.0662 14.7735L5.90473 14.732C5.62887 14.6462 5.36025 14.5439 5.10007 14.4263L4.56525 14.1442L3.86265 14.5498L3.76798 14.5816L3.7641 14.5842L3.75513 14.586L3.64755 14.6221L3.58988 14.6181L3.54905 14.6261L3.46263 14.6093L3.429 14.6069L3.41468 14.5999L3.33402 14.5842C3.26522 14.5563 3.20075 14.5145 3.14497 14.4587L1.52858 12.8423C1.47279 12.7865 1.43095 12.7221 1.40305 12.6533L1.38735 12.5726L1.38037 12.5583L1.37803 12.5247L1.3612 12.4382L1.36915 12.3974L1.36513 12.3397L1.40131 12.2321L1.40305 12.2232L1.40562 12.2193L1.43746 12.1246L1.84657 11.416L1.57507 10.9013C1.45744 10.6411 1.35514 10.3724 1.26933 10.0966L1.22506 9.9244L0.443048 9.71487L0.353593 9.67043L0.349032 9.66952L0.34146 9.6644L0.239807 9.61392L0.201875 9.57028L0.16738 9.54703L0.118153 9.47402L0.096046 9.4486L0.090867 9.43355L0.0449107 9.36538C0.015991 9.29702 0 9.22185 0 9.14295V6.85703C0 6.77813 0.015991 6.70297 0.0449107 6.6346L0.0908545 6.56645L0.0960377 6.55138L0.118166 6.52593L0.16738 6.45295L0.201862 6.4297L0.239798 6.38608L0.34146 6.33558L0.349032 6.33047L0.353593 6.32955L0.44304 6.28512L1.22543 6.07548L1.26933 5.90475C1.35514 5.62887 1.45744 5.36025 1.57507 5.10007L1.85173 4.57553L1.44383 3.86902L1.412 3.77435L1.40942 3.77047L1.40768 3.76152L1.37151 3.65392L1.37552 3.59627L1.36758 3.55543L1.3844 3.46898L1.38674 3.43538L1.39372 3.42108L1.40942 3.34038C1.43732 3.27158 1.47916 3.20713 1.53496 3.15133L3.15133 1.53496C3.20713 1.47916 3.27158 1.43732 3.34038 1.40942L3.42105 1.39373L3.43537 1.38674L3.46902 1.38439L3.55543 1.36758L3.59625 1.37552L3.65392 1.3715L3.76152 1.40767L3.77048 1.40942L3.77435 1.41199L3.86902 1.44383L4.57553 1.85173L5.10007 1.57508C5.36025 1.45744 5.62887 1.35514 5.90473 1.26933L6.06582 1.22792L6.27613 0.443048L6.32057 0.353593L6.32148 0.349032L6.32658 0.34146L6.37708 0.239807L6.4207 0.201875L6.44395 0.16738L6.51697 0.118153L6.5424 0.096046L6.55743 0.090867L6.6256 0.0449107C6.69398 0.015991 6.76915 0 6.84805 0Z" fill="#20ECF6"/>
</g>
</g>
<defs>
<clipPath id="clip0_475_1019">
<rect width="16" height="16" fill="white"/>
</clipPath>
</defs>
</svg>
