<svg width="16" height="16" viewBox="0 0 16 16" fill="none" xmlns="http://www.w3.org/2000/svg">
<g clip-path="url(#clip0_475_744)">
<mask id="mask0_475_744" style="mask-type:luminance" maskUnits="userSpaceOnUse" x="0" y="0" width="16" height="16">
<path d="M16 0H0V16H16V0Z" fill="white"/>
</mask>
<g mask="url(#mask0_475_744)">
<path fill-rule="evenodd" clip-rule="evenodd" d="M8.57213 13.7154V14.8571H12.001V13.7154H8.57213ZM4.00032 13.7155V14.8571H7.42918V13.7155H4.00032ZM2.47638 12.5725L13.5249 12.5725C13.8405 12.5725 14.0964 12.8284 14.0964 13.144C14.0964 13.4596 13.8405 13.7154 13.5249 13.7154H13.1439V14.8571H13.5249C13.8405 14.8571 14.0964 15.1129 14.0964 15.4286C14.0964 15.7442 13.8405 16 13.5249 16L2.47638 16C2.16077 16 1.90492 15.7442 1.90492 15.4286C1.90492 15.1129 2.16077 14.8571 2.47638 14.8571H2.85737V13.7155H2.47638C2.16077 13.7155 1.90492 13.4596 1.90492 13.144C1.90492 12.8284 2.16077 12.5725 2.47638 12.5725ZM6.28623 8.00003H8.57213C8.88775 8.00003 9.1436 8.25589 9.1436 8.57151C9.1436 8.88713 8.88775 9.14298 8.57213 9.14298H6.28623C5.97062 9.14298 5.71475 8.88713 5.71475 8.57151C5.71475 8.25589 5.97062 8.00003 6.28623 8.00003ZM6.28623 5.71479H8.57213C8.88775 5.71479 9.1436 5.97064 9.1436 6.28626C9.1436 6.60188 8.88775 6.85774 8.57213 6.85774H6.28623C5.97062 6.85774 5.71475 6.60188 5.71475 6.28628C5.71475 5.97064 5.97062 5.71479 6.28623 5.71479ZM14.2034 4.49119C14.3496 4.49119 14.4959 4.54699 14.6075 4.65858L15.8198 5.87086C16.0429 6.09403 16.0429 6.45588 15.8198 6.67904L15.8062 6.68806L15.7972 6.70164L14.5849 7.91393C14.3617 8.13711 13.9999 8.13711 13.7767 7.91393C13.5535 7.69076 13.5535 7.32891 13.7767 7.10574L14.6075 6.27496L13.7993 5.46676C13.5761 5.24359 13.5761 4.88174 13.7993 4.65858C13.9109 4.54699 14.0571 4.49119 14.2034 4.49119ZM0.589648 4.49119C0.735905 4.49119 0.882157 4.54699 0.993745 4.65858L2.20603 5.87086C2.4292 6.09404 2.4292 6.45588 2.20603 6.67906L2.19245 6.68808L2.18343 6.70164L0.971143 7.91394C0.74797 8.13711 0.386128 8.13711 0.162955 7.91394C-0.0602191 7.69076 -0.0602179 7.32893 0.162956 7.10574L0.993745 6.27496L0.185557 5.46676C-0.0376177 5.24359 -0.0376182 4.88176 0.185555 4.65858C0.297142 4.54699 0.443395 4.49119 0.589648 4.49119ZM5.01323 1.14298C4.76943 1.14298 4.5718 1.34062 4.5718 1.58442V9.84516C4.5718 10.089 4.76943 10.2866 5.01323 10.2866H10.9881C11.2319 10.2866 11.4295 10.089 11.4295 9.84516V1.58441C11.4295 1.34062 11.2319 1.14298 10.9881 1.14298L5.01323 1.14298ZM4.2675 3.05176e-05H11.7338C12.197 2.54314e-05 12.5725 0.375504 12.5725 0.838677V10.5909C12.5725 11.0541 12.197 11.4295 11.7338 11.4295H4.2675C3.80433 11.4295 3.42885 11.0541 3.42885 10.5909V0.838684C3.42885 0.375509 3.80433 3.30608e-05 4.2675 3.05176e-05Z" fill="white"/>
</g>
</g>
<defs>
<clipPath id="clip0_475_744">
<rect width="16" height="16" fill="white"/>
</clipPath>
</defs>
</svg>
