<svg width="16" height="16" viewBox="0 0 16 16" fill="none" xmlns="http://www.w3.org/2000/svg">
<g clip-path="url(#clip0_475_955)">
<mask id="mask0_475_955" style="mask-type:luminance" maskUnits="userSpaceOnUse" x="0" y="0" width="16" height="16">
<path d="M16 0H0V16H16V0Z" fill="white"/>
</mask>
<g mask="url(#mask0_475_955)">
<path fill-rule="evenodd" clip-rule="evenodd" d="M5.53107 8.38095C3.74894 8.38095 2.30422 9.8307 2.30422 11.6191L2.31584 11.7346L2.30422 11.7923V13.7136C2.30422 14.3444 2.81386 14.8558 3.44251 14.8558H5.50502L5.53107 14.8572H10.4663L10.4923 14.8558H12.5548C13.1835 14.8558 13.6931 14.3444 13.6931 13.7136V11.7923L13.6815 11.7346L13.6931 11.6191C13.6931 9.8307 12.2484 8.38095 10.4663 8.38095H5.53107ZM5.53239 7.2381H10.4676C12.8787 7.2381 14.8333 9.19952 14.8333 11.6191L14.8245 11.7067L14.8333 11.7943V14.4311C14.8333 15.2968 14.1339 15.9987 13.2712 15.9987H10.4936L10.4676 16H5.53239L5.50634 15.9987H2.72881C1.86606 15.9987 1.16666 15.2968 1.16666 14.4311V11.7943L1.17546 11.7067L1.16666 11.6191C1.16666 9.19952 3.12126 7.2381 5.53239 7.2381ZM7.99999 1.14286C6.95167 1.14286 6.10184 1.99565 6.10184 3.04762C6.10184 4.09958 6.95167 4.95238 7.99999 4.95238C9.04831 4.95238 9.89814 4.09958 9.89814 3.04762C9.89814 1.99565 9.04831 1.14286 7.99999 1.14286ZM7.99999 0C9.67729 0 11.037 1.36447 11.037 3.04762C11.037 4.73077 9.67729 6.09523 7.99999 6.09523C6.32267 6.09523 4.96296 4.73077 4.96296 3.04762C4.96296 1.36447 6.32267 0 7.99999 0Z" fill="#20ECF6"/>
</g>
</g>
<defs>
<clipPath id="clip0_475_955">
<rect width="16" height="16" fill="white"/>
</clipPath>
</defs>
</svg>
