<svg width="16" height="16" viewBox="0 0 16 16" fill="none" xmlns="http://www.w3.org/2000/svg">
<g clip-path="url(#clip0_475_948)">
<mask id="mask0_475_948" style="mask-type:luminance" maskUnits="userSpaceOnUse" x="0" y="0" width="16" height="16">
<path d="M16 0H0V16H16V0Z" fill="white"/>
</mask>
<g mask="url(#mask0_475_948)">
<path fill-rule="evenodd" clip-rule="evenodd" d="M13.1429 7.42918C13.4585 7.42918 13.7143 7.68505 13.7143 8.00067C13.7143 8.31628 13.4585 8.57213 13.1429 8.57213C12.8273 8.57213 12.5714 8.31628 12.5714 8.00067C12.5714 7.68505 12.8273 7.42918 13.1429 7.42918ZM11.4286 7.42918C11.7442 7.42918 12 7.68505 12 8.00067C12 8.31628 11.7442 8.57213 11.4286 8.57213C11.113 8.57213 10.8572 8.31628 10.8572 8.00067C10.8572 7.68505 11.113 7.42918 11.4286 7.42918ZM9.71428 7.42918C10.0299 7.42918 10.2857 7.68505 10.2857 8.00067C10.2857 8.31628 10.0299 8.57213 9.71428 8.57213C9.3987 8.57213 9.14285 8.31628 9.14285 8.00067C9.14285 7.68505 9.3987 7.42918 9.71428 7.42918ZM2.85715 7.42918H6.28572C6.6013 7.42918 6.85715 7.68505 6.85715 8.00067C6.85715 8.31628 6.6013 8.57213 6.28572 8.57213H2.85715C2.54155 8.57213 2.28572 8.31628 2.28572 8.00067C2.28572 7.68505 2.54155 7.42918 2.85715 7.42918ZM1.74 6.09573L1.50757 6.14267C1.29324 6.23333 1.14286 6.44557 1.14286 6.69293V9.30838C1.14286 9.6382 1.41021 9.90558 1.74 9.90558H7.9928L7.99933 9.90425L8.00588 9.90558H14.26C14.5898 9.90558 14.8572 9.6382 14.8572 9.30838V6.69293C14.8572 6.44557 14.7067 6.23333 14.4924 6.14267L14.26 6.09573H1.74ZM13.1429 2.4764C13.4585 2.4764 13.7143 2.73225 13.7143 3.04787C13.7143 3.36348 13.4585 3.61935 13.1429 3.61935C12.8273 3.61935 12.5714 3.36348 12.5714 3.04787C12.5714 2.73225 12.8273 2.4764 13.1429 2.4764ZM11.4286 2.4764C11.7442 2.4764 12 2.73225 12 3.04787C12 3.36348 11.7442 3.61935 11.4286 3.61935C11.113 3.61935 10.8572 3.36348 10.8572 3.04787C10.8572 2.73225 11.113 2.4764 11.4286 2.4764ZM9.71428 2.4764C10.0299 2.4764 10.2857 2.73225 10.2857 3.04787C10.2857 3.36348 10.0299 3.61935 9.71428 3.61935C9.3987 3.61935 9.14285 3.36348 9.14285 3.04787C9.14285 2.73225 9.3987 2.4764 9.71428 2.4764ZM2.85715 2.4764H6.28572C6.6013 2.4764 6.85715 2.73225 6.85715 3.04787C6.85715 3.36348 6.6013 3.61935 6.28572 3.61935H2.85715C2.54155 3.61935 2.28572 3.36348 2.28572 3.04787C2.28572 2.73225 2.54155 2.4764 2.85715 2.4764ZM1.74 1.14295C1.41021 1.14295 1.14286 1.41032 1.14286 1.74015V4.3556C1.14286 4.60297 1.29324 4.8152 1.50757 4.90587L1.74 4.95278H14.26L14.4924 4.90587C14.7067 4.8152 14.8572 4.60297 14.8572 4.3556V1.74015C14.8572 1.41032 14.5898 1.14295 14.26 1.14295H1.74ZM1.01589 0H14.9841C15.5452 0 16 0.454868 16 1.01598V5.07977C16 5.22003 15.9716 5.35368 15.9202 5.47523L15.8935 5.52427L15.9202 5.5733C15.9716 5.69485 16 5.82848 16 5.96877V10.0326C16 10.5937 15.5452 11.0485 14.9841 11.0485H8.57077V13.7141H9.1422C9.53668 13.7141 9.88448 13.914 10.0899 14.218L10.1273 14.2869H15.4286C15.7442 14.2869 16 14.5428 16 14.8584C16 15.174 15.7442 15.4299 15.4286 15.4299H10.1258L10.0899 15.4961C9.88448 15.8001 9.53668 16 9.1422 16H6.85648C6.46198 16 6.11418 15.8001 5.9088 15.4961L5.87285 15.4299H0.571428C0.255838 15.4299 0 15.174 0 14.8584C0 14.5428 0.255838 14.2869 0.571428 14.2869H5.87142L5.9088 14.218C6.11418 13.914 6.46198 13.7141 6.85648 13.7141H7.42792V11.0485H1.01589C0.45483 11.0485 0 10.5937 0 10.0326V5.96877C0 5.82848 0.0284257 5.69485 0.0798358 5.5733L0.106449 5.52427L0.0798358 5.47523C0.0284298 5.35368 0 5.22003 0 5.07977V1.01598C0 0.454868 0.45483 0 1.01589 0Z" fill="#20ECF6"/>
</g>
</g>
<defs>
<clipPath id="clip0_475_948">
<rect width="16" height="16" fill="white"/>
</clipPath>
</defs>
</svg>
