<svg width="16" height="16" viewBox="0 0 16 16" fill="none" xmlns="http://www.w3.org/2000/svg">
<g clip-path="url(#clip0_475_758)">
<mask id="mask0_475_758" style="mask-type:luminance" maskUnits="userSpaceOnUse" x="0" y="0" width="16" height="16">
<path d="M16 0H0V16H16V0Z" fill="white"/>
</mask>
<g mask="url(#mask0_475_758)">
<path fill-rule="evenodd" clip-rule="evenodd" d="M7.9447 9.81074L6.40153 11.3539C6.34573 11.4097 6.28128 11.4516 6.21248 11.4795L6.14472 11.4926L6.06945 11.5294C5.92818 11.5672 5.77247 11.5512 5.6358 11.4723L3.66123 10.3323V12.1608L8.04108 14.6895L12.4341 12.1532V10.2134L10.2536 11.4723C10.1169 11.5512 9.96123 11.5672 9.81995 11.5294L9.74468 11.4926L9.67692 11.4794C9.60812 11.4516 9.54365 11.4097 9.48787 11.3539L7.9447 9.81074ZM2.99778 6.88515L1.89195 7.99099L5.85818 10.2809L6.96402 9.17505L2.99778 6.88515ZM12.8916 6.88515L8.92538 9.17505L10.0312 10.2809L13.9975 7.99099L12.8916 6.88515ZM7.99978 3.49442L3.70528 5.97386L7.9447 8.42149L12.2392 5.94205L7.99978 3.49442ZM5.8342 1.68064L1.86798 3.97054L2.97383 5.07639L6.94005 2.78649L5.8342 1.68064ZM10.1653 1.68064L9.05952 2.78649L13.0257 5.07639L14.1316 3.97054L10.1653 1.68064ZM10.0734 0.392944L10.1578 0.409364L10.1595 0.409328L10.162 0.410188L10.2884 0.434788L10.3431 0.471076L10.3745 0.481658L15.2665 3.30602L15.2859 3.3098C15.3547 3.3377 15.4192 3.37955 15.475 3.43534C15.6982 3.6585 15.6982 4.02035 15.475 4.24354L13.6707 6.04784L15.2936 7.6707L15.3538 7.76147L15.4119 7.83424C15.5697 8.10757 15.4761 8.45709 15.2027 8.61489L13.5494 9.56942L13.577 9.70602V12.4904C13.577 12.6482 13.5131 12.7911 13.4096 12.8945L13.289 12.9758L13.2775 12.986L13.2526 13.0004L13.228 13.017L13.2216 13.0182L8.32833 15.8434L8.25158 15.8692L8.18748 15.9005L8.151 15.903L8.11323 15.9157L8.04105 15.9107L7.96893 15.9157L7.9312 15.903L7.89468 15.9005L7.83052 15.8692L7.75383 15.8434L2.8047 12.986L2.75055 12.9382L2.68565 12.8945L2.66322 12.8612L2.63452 12.8359L2.60403 12.7734L2.56318 12.7128L2.55522 12.6734L2.53843 12.639L2.53325 12.5646L2.51828 12.4904V9.70602L2.52437 9.67589L0.68667 8.61489C0.41334 8.45709 0.31969 8.10757 0.4775 7.83424L0.53558 7.76147L0.595856 7.6707L2.27382 5.99275L0.52459 4.24354C0.301415 4.02035 0.301415 3.65852 0.524588 3.43534C0.580385 3.37955 0.644841 3.3377 0.713638 3.3098L0.733058 3.30602L5.62502 0.481659L5.65648 0.471078L5.71113 0.434789L5.83755 0.410191L5.8401 0.409333L5.84178 0.409368L5.92618 0.392946C6.07243 0.392946 6.21868 0.448741 6.33027 0.560328L7.99978 2.22984L9.6693 0.560324C9.78088 0.448734 9.92713 0.392943 10.0734 0.392944Z" fill="white"/>
</g>
</g>
<defs>
<clipPath id="clip0_475_758">
<rect width="16" height="16" fill="white"/>
</clipPath>
</defs>
</svg>
