<svg width="16" height="16" viewBox="0 0 16 16" fill="none" xmlns="http://www.w3.org/2000/svg">
<g clip-path="url(#clip0_475_779)">
<mask id="mask0_475_779" style="mask-type:luminance" maskUnits="userSpaceOnUse" x="0" y="0" width="16" height="16">
<path d="M16 0H0V16H16V0Z" fill="white"/>
</mask>
<g mask="url(#mask0_475_779)">
<path fill-rule="evenodd" clip-rule="evenodd" d="M13.0999 11.3333C13.4129 11.3333 13.6667 11.5945 13.6667 11.9166C13.6667 12.2388 13.4129 12.5 13.0999 12.5C12.7869 12.5 12.5332 12.2388 12.5332 11.9166C12.5332 11.5945 12.7869 11.3333 13.0999 11.3333ZM10.5712 11.3333C10.8841 11.3333 11.1379 11.5945 11.1379 11.9166C11.1379 12.2388 10.8841 12.5 10.5712 12.5C10.2582 12.5 10.0044 12.2388 10.0044 11.9166C10.0044 11.5945 10.2582 11.3333 10.5712 11.3333ZM8 11.3333C8.313 11.3333 8.56674 11.5945 8.56674 11.9166C8.56674 12.2388 8.313 12.5 8 12.5C7.687 12.5 7.43327 12.2388 7.43327 11.9166C7.43327 11.5945 7.687 11.3333 8 11.3333ZM5.44937 11.3333C5.76237 11.3333 6.0161 11.5945 6.0161 11.9166C6.0161 12.2388 5.76237 12.5 5.44937 12.5C5.13639 12.5 4.88264 12.2388 4.88264 11.9166C4.88264 11.5945 5.13639 11.3333 5.44937 11.3333ZM2.90007 11.3333C3.21307 11.3333 3.4668 11.5945 3.4668 11.9166C3.4668 12.2388 3.21307 12.5 2.90007 12.5C2.58707 12.5 2.33334 12.2388 2.33334 11.9166C2.33334 11.5945 2.58707 11.3333 2.90007 11.3333Z" fill="white"/>
<path fill-rule="evenodd" clip-rule="evenodd" d="M3.59157 13.7154C3.50172 13.7154 3.42887 13.7882 3.42887 13.8781L3.42886 14.6956C3.42887 14.7855 3.50171 14.8583 3.59158 14.8584L12.4098 14.8583C12.4996 14.8583 12.5725 14.7855 12.5725 14.6956L12.5725 13.8781C12.5725 13.7882 12.4996 13.7154 12.4098 13.7154L3.59157 13.7154ZM1.71377 11.4098C1.39816 11.4098 1.14231 11.6657 1.1423 11.9813C1.1423 12.2969 1.39816 12.5528 1.71378 12.5528H14.2863C14.6019 12.5528 14.8577 12.2969 14.8577 11.9813C14.8577 11.6657 14.6019 11.4098 14.2862 11.4098L1.71377 11.4098ZM1.71444 10.2669L14.2869 10.2669C15.2338 10.2669 16.0013 11.0345 16.0013 11.9813C16.0013 12.9282 15.2338 13.6957 14.2869 13.6957L13.7141 13.6957L13.7141 15.5047C13.7141 15.779 13.4918 16.0013 13.2175 16.0013L2.78252 16.0013C2.50825 16.0013 2.28592 15.779 2.28592 15.5047L2.28592 13.6957L1.71445 13.6958C0.767589 13.6957 1.16977e-05 12.9282 6.61896e-06 11.9813C1.02436e-05 11.0345 0.767587 10.2669 1.71444 10.2669ZM7.42855 0.0367844H8.57149V4.6014L9.99239 6.02229L10.0262 6.04472C10.2494 6.26789 10.2493 6.62973 10.0262 6.85291L9.21798 7.6611C8.9948 7.88427 8.63297 7.88427 8.4098 7.6611C8.18662 7.43792 8.18661 7.07608 8.40979 6.85291L8.80821 6.45449L7.99435 5.64063L7.189 6.44598L7.59593 6.85291C7.81911 7.07608 7.81911 7.43793 7.59593 7.66111C7.37276 7.88428 7.01092 7.88427 6.78774 7.6611L5.9908 6.86415L5.97386 6.85292C5.75069 6.62974 5.7507 6.26791 5.97387 6.04473L7.42855 4.59006L7.42855 0.0367844Z" fill="white"/>
</g>
</g>
<defs>
<clipPath id="clip0_475_779">
<rect width="16" height="16" fill="white"/>
</clipPath>
</defs>
</svg>
