<svg width="16" height="16" viewBox="0 0 16 16" fill="none" xmlns="http://www.w3.org/2000/svg">
<g clip-path="url(#clip0_475_1012)">
<mask id="mask0_475_1012" style="mask-type:luminance" maskUnits="userSpaceOnUse" x="0" y="0" width="16" height="16">
<path d="M16 0H0V16H16V0Z" fill="white"/>
</mask>
<g mask="url(#mask0_475_1012)">
<path fill-rule="evenodd" clip-rule="evenodd" d="M5.96032 13.718H10.0397C10.1756 13.718 10.2857 13.8279 10.2857 13.9636V15.7544C10.2857 15.89 10.1756 16 10.0397 16H5.96032C5.82443 16 5.71428 15.89 5.71428 15.7544V13.9636C5.71428 13.8279 5.82443 13.718 5.96032 13.718ZM1.97587 2.30772C1.51581 2.30772 1.14286 2.68007 1.14286 3.13939V10.6043C1.14286 11.0636 1.51581 11.4359 1.97587 11.4359H14.0241C14.4842 11.4359 14.8572 11.0636 14.8572 10.6043V3.13939C14.8572 2.68007 14.4842 2.30772 14.0241 2.30772H1.97587ZM1.27726 1.16669H14.7228C15.4282 1.16669 16 1.73762 16 2.4419V11.3017C16 12.006 15.4282 12.577 14.7228 12.577H1.27726C0.57185 12.577 0 12.006 0 11.3017V2.4419C0 1.73762 0.57185 1.16669 1.27726 1.16669Z" fill="#20ECF6"/>
</g>
</g>
<defs>
<clipPath id="clip0_475_1012">
<rect width="16" height="16" fill="white"/>
</clipPath>
</defs>
</svg>
