<svg width="16" height="16" viewBox="0 0 16 16" fill="none" xmlns="http://www.w3.org/2000/svg">
<g clip-path="url(#clip0_475_737)">
<mask id="mask0_475_737" style="mask-type:luminance" maskUnits="userSpaceOnUse" x="0" y="0" width="16" height="16">
<path d="M16 0H0V16H16V0Z" fill="white"/>
</mask>
<g mask="url(#mask0_475_737)">
<path fill-rule="evenodd" clip-rule="evenodd" d="M4.01388 10.8572H8.96414C9.27864 10.8572 9.53358 11.113 9.53358 11.4286C9.53358 11.7442 9.27864 12 8.96414 12H4.01388C3.6994 12 3.44445 11.7442 3.44445 11.4286C3.44445 11.113 3.6994 10.8572 4.01388 10.8572ZM4.01388 8.57143H11.9861C12.3006 8.57143 12.5556 8.82727 12.5556 9.14285C12.5556 9.45845 12.3006 9.71428 11.9861 9.71428H4.01388C3.6994 9.71428 3.44445 9.45845 3.44445 9.14285C3.44445 8.82727 3.6994 8.57143 4.01388 8.57143ZM4.01388 6.28572H11.9861C12.3006 6.28572 12.5556 6.54155 12.5556 6.85715C12.5556 7.17273 12.3006 7.42857 11.9861 7.42857H4.01388C3.6994 7.42857 3.44445 7.17273 3.44445 6.85715C3.44445 6.54155 3.6994 6.28572 4.01388 6.28572ZM3.09788 2.66667C2.6603 2.66667 2.30555 3.02263 2.30555 3.46175V14.0621C2.30555 14.5012 2.6603 14.8572 3.09788 14.8572H12.9021C13.3397 14.8572 13.6945 14.5012 13.6945 14.0621V3.46175C13.6945 3.02263 13.3397 2.66667 12.9021 2.66667H11.7956V3.31345C11.7956 3.79782 11.4044 4.19048 10.9217 4.19048H5.07702C4.59433 4.19048 4.20305 3.79782 4.20305 3.31345V2.66667H3.09788ZM5.75152 1.14286C5.5253 1.14286 5.34194 1.32687 5.34194 1.55387V2.6366C5.34194 2.8636 5.5253 3.04762 5.75152 3.04762H10.2472C10.4734 3.04762 10.6568 2.8636 10.6568 2.6366V1.55387C10.6568 1.32687 10.4734 1.14286 10.2472 1.14286H5.75152ZM5.07702 0H10.9217C11.4044 0 11.7956 0.392655 11.7956 0.877023V1.52381H13.4029C14.1929 1.52381 14.8333 2.1665 14.8333 2.95928V14.5645C14.8333 15.3573 14.1929 16 13.4029 16H2.59715C1.80712 16 1.16667 15.3573 1.16667 14.5645V2.95928C1.16667 2.1665 1.80712 1.52381 2.59715 1.52381H4.20305V0.877023C4.20305 0.392655 4.59433 0 5.07702 0Z" fill="white"/>
</g>
</g>
<defs>
<clipPath id="clip0_475_737">
<rect width="16" height="16" fill="white"/>
</clipPath>
</defs>
</svg>
