<svg width="16" height="16" viewBox="0 0 16 16" fill="none" xmlns="http://www.w3.org/2000/svg">
<g clip-path="url(#clip0_475_990)">
<mask id="mask0_475_990" style="mask-type:luminance" maskUnits="userSpaceOnUse" x="0" y="0" width="16" height="16">
<path d="M16 0H0V16H16V0Z" fill="white"/>
</mask>
<g mask="url(#mask0_475_990)">
<path fill-rule="evenodd" clip-rule="evenodd" d="M6.29166 9.14285H11.9861C12.3006 9.14285 12.5555 9.3987 12.5555 9.71428C12.5555 10.0299 12.3006 10.2857 11.9861 10.2857H6.29166C5.97716 10.2857 5.72221 10.0299 5.72221 9.71428C5.72221 9.3987 5.97716 9.14285 6.29166 9.14285ZM4.01387 9.14285C4.32837 9.14285 4.58332 9.3987 4.58332 9.71428C4.58332 10.0299 4.32837 10.2857 4.01387 10.2857C3.69939 10.2857 3.44444 10.0299 3.44444 9.71428C3.44444 9.3987 3.69939 9.14285 4.01387 9.14285ZM6.29166 6.28572H11.9861C12.3006 6.28572 12.5555 6.54155 12.5555 6.85715C12.5555 7.17273 12.3006 7.42857 11.9861 7.42857H6.29166C5.97716 7.42857 5.72221 7.17273 5.72221 6.85715C5.72221 6.54155 5.97716 6.28572 6.29166 6.28572ZM4.01387 6.28572C4.32837 6.28572 4.58332 6.54155 4.58332 6.85715C4.58332 7.17273 4.32837 7.42857 4.01387 7.42857C3.69939 7.42857 3.44444 7.17273 3.44444 6.85715C3.44444 6.54155 3.69939 6.28572 4.01387 6.28572ZM6.29166 3.42857H11.9861C12.3006 3.42857 12.5555 3.68442 12.5555 4C12.5555 4.31558 12.3006 4.57143 11.9861 4.57143H6.29166C5.97716 4.57143 5.72221 4.31558 5.72221 4C5.72221 3.68442 5.97716 3.42857 6.29166 3.42857ZM4.01387 3.42857C4.32837 3.42857 4.58332 3.68442 4.58332 4C4.58332 4.31558 4.32837 4.57143 4.01387 4.57143C3.69939 4.57143 3.44444 4.31558 3.44444 4C3.44444 3.68442 3.69939 3.42857 4.01387 3.42857ZM3.09787 1.14286C2.66029 1.14286 2.30554 1.49883 2.30554 1.93793V14.0621C2.30554 14.5012 2.66029 14.8572 3.09787 14.8572H12.9021C13.3397 14.8572 13.6944 14.5012 13.6944 14.0621V1.93793C13.6944 1.49883 13.3397 1.14286 12.9021 1.14286H3.09787ZM2.59714 0H13.4028C14.1929 0 14.8333 0.642682 14.8333 1.43548V14.5645C14.8333 15.3573 14.1929 16 13.4028 16H2.59714C1.80711 16 1.16666 15.3573 1.16666 14.5645V1.43548C1.16666 0.642682 1.80711 0 2.59714 0Z" fill="#20ECF6"/>
</g>
</g>
<defs>
<clipPath id="clip0_475_990">
<rect width="16" height="16" fill="white"/>
</clipPath>
</defs>
</svg>
