<svg width="16" height="16" viewBox="0 0 16 16" fill="none" xmlns="http://www.w3.org/2000/svg">
<g clip-path="url(#clip0_475_997)">
<mask id="mask0_475_997" style="mask-type:luminance" maskUnits="userSpaceOnUse" x="0" y="0" width="16" height="16">
<path d="M16 0H0V16H16V0Z" fill="white"/>
</mask>
<g mask="url(#mask0_475_997)">
<path fill-rule="evenodd" clip-rule="evenodd" d="M4.88558 10.8558C4.71282 10.8558 4.57275 10.9959 4.57275 11.1687V14.543C4.57275 14.7158 4.71282 14.8558 4.88558 14.8558H11.1171C11.2898 14.8558 11.4299 14.7158 11.4299 14.543V11.1687C11.4299 10.9959 11.2898 10.8558 11.1171 10.8558H8.57275V11.4435C8.57275 11.7591 8.31692 12.015 8.00132 12.015C7.68573 12.015 7.4299 11.7591 7.4299 11.4435V10.8558H4.88558ZM4.34025 9.71297H11.6624C12.1652 9.71297 12.5728 10.1206 12.5728 10.6233V15.0883C12.5728 15.5911 12.1652 15.9987 11.6624 15.9987H4.34025C3.83747 15.9987 3.4299 15.5911 3.4299 15.0883V10.6233C3.4299 10.1206 3.83747 9.71297 4.34025 9.71297ZM4.88558 1.14285C4.71282 1.14285 4.57275 1.28292 4.57275 1.45569V4.83002C4.57275 5.00278 4.71282 5.14285 4.88558 5.14285H11.1171C11.2898 5.14285 11.4299 5.00278 11.4299 4.83002V1.45569C11.4299 1.28292 11.2898 1.14285 11.1171 1.14285H8.57275V1.73057C8.57275 2.04615 8.31692 2.302 8.00132 2.302C7.68573 2.302 7.4299 2.04615 7.4299 1.73057V1.14285H4.88558ZM14.287 0C14.6026 0 14.8585 0.255838 14.8585 0.571428V7.42857H15.4286C15.7442 7.42857 16 7.68442 16 8C16 8.31558 15.7442 8.57143 15.4286 8.57143H14.8585V15.4286C14.8585 15.7442 14.6026 16 14.287 16C13.9714 16 13.7156 15.7442 13.7156 15.4286V8.57143H2.28703V15.4286C2.28703 15.7442 2.0312 16 1.7156 16C1.40002 16 1.14418 15.7442 1.14418 15.4286V8.57143H0.571428C0.255838 8.57143 0 8.31558 0 8C0 7.68442 0.255838 7.42857 0.571428 7.42857H1.14418V0.571428C1.14418 0.255838 1.40002 0 1.7156 0C2.0312 0 2.28703 0.255838 2.28703 0.571428V7.42857H13.7156V0.571428C13.7156 0.255838 13.9714 0 14.287 0ZM4.34025 0H11.6624C12.1652 0 12.5728 0.407582 12.5728 0.910357V5.37535C12.5728 5.87812 12.1652 6.2857 11.6624 6.2857H4.34025C3.83747 6.2857 3.4299 5.87812 3.4299 5.37535V0.910357C3.4299 0.407582 3.83747 0 4.34025 0Z" fill="#20ECF6"/>
</g>
</g>
<defs>
<clipPath id="clip0_475_997">
<rect width="16" height="16" fill="white"/>
</clipPath>
</defs>
</svg>
