<svg width="16" height="16" viewBox="0 0 16 16" fill="none" xmlns="http://www.w3.org/2000/svg">
<g clip-path="url(#clip0_475_765)">
<mask id="mask0_475_765" style="mask-type:luminance" maskUnits="userSpaceOnUse" x="0" y="0" width="16" height="16">
<path d="M16 0H0V16H16V0Z" fill="white"/>
</mask>
<g mask="url(#mask0_475_765)">
<path fill-rule="evenodd" clip-rule="evenodd" d="M6.29167 9.14285H11.9861C12.3006 9.14285 12.5556 9.3987 12.5556 9.71428C12.5556 10.0299 12.3006 10.2857 11.9861 10.2857H6.29167C5.97717 10.2857 5.72222 10.0299 5.72222 9.71428C5.72222 9.3987 5.97717 9.14285 6.29167 9.14285ZM4.01388 9.14285C4.32838 9.14285 4.58333 9.3987 4.58333 9.71428C4.58333 10.0299 4.32838 10.2857 4.01388 10.2857C3.6994 10.2857 3.44445 10.0299 3.44445 9.71428C3.44445 9.3987 3.6994 9.14285 4.01388 9.14285ZM6.29167 6.28572H11.9861C12.3006 6.28572 12.5556 6.54155 12.5556 6.85715C12.5556 7.17273 12.3006 7.42857 11.9861 7.42857H6.29167C5.97717 7.42857 5.72222 7.17273 5.72222 6.85715C5.72222 6.54155 5.97717 6.28572 6.29167 6.28572ZM4.01388 6.28572C4.32838 6.28572 4.58333 6.54155 4.58333 6.85715C4.58333 7.17273 4.32838 7.42857 4.01388 7.42857C3.6994 7.42857 3.44445 7.17273 3.44445 6.85715C3.44445 6.54155 3.6994 6.28572 4.01388 6.28572ZM6.29167 3.42857H11.9861C12.3006 3.42857 12.5556 3.68442 12.5556 4C12.5556 4.31558 12.3006 4.57143 11.9861 4.57143H6.29167C5.97717 4.57143 5.72222 4.31558 5.72222 4C5.72222 3.68442 5.97717 3.42857 6.29167 3.42857ZM4.01388 3.42857C4.32838 3.42857 4.58333 3.68442 4.58333 4C4.58333 4.31558 4.32838 4.57143 4.01388 4.57143C3.6994 4.57143 3.44445 4.31558 3.44445 4C3.44445 3.68442 3.6994 3.42857 4.01388 3.42857ZM3.09788 1.14286C2.6603 1.14286 2.30555 1.49883 2.30555 1.93793V14.0621C2.30555 14.5012 2.6603 14.8572 3.09788 14.8572H12.9021C13.3397 14.8572 13.6945 14.5012 13.6945 14.0621V1.93793C13.6945 1.49883 13.3397 1.14286 12.9021 1.14286H3.09788ZM2.59715 0H13.4029C14.1929 0 14.8333 0.642682 14.8333 1.43548V14.5645C14.8333 15.3573 14.1929 16 13.4029 16H2.59715C1.80712 16 1.16667 15.3573 1.16667 14.5645V1.43548C1.16667 0.642682 1.80712 0 2.59715 0Z" fill="white"/>
</g>
</g>
<defs>
<clipPath id="clip0_475_765">
<rect width="16" height="16" fill="white"/>
</clipPath>
</defs>
</svg>
