<svg width="16" height="16" viewBox="0 0 16 16" fill="none" xmlns="http://www.w3.org/2000/svg">
<g clip-path="url(#clip0_478_1351)">
<mask id="mask0_478_1351" style="mask-type:luminance" maskUnits="userSpaceOnUse" x="0" y="0" width="16" height="16">
<path d="M16 0H0V16H16V0Z" fill="white"/>
</mask>
<g mask="url(#mask0_478_1351)">
<path fill-rule="evenodd" clip-rule="evenodd" d="M8.0708 2.4959L6.91207 6.06212L6.89568 6.09118L6.89231 6.10785L6.85546 6.1625L6.80581 6.25057L6.78525 6.26663L6.77555 6.28102L6.71218 6.32375L6.64126 6.37918L6.62161 6.38482L6.60238 6.39778L6.5143 6.41557L6.44048 6.43672L6.4208 6.43443L6.39033 6.44058H2.62435L5.6726 8.65528L5.68467 8.6684L5.71335 8.68457L5.79193 8.7851L5.819 8.81457L5.82253 8.82427L5.84196 8.84912L5.88025 8.98273L5.89046 9.0108L5.89023 9.01758L5.8995 9.0499L5.88455 9.17928L5.88315 9.21953L5.87881 9.22898L5.87468 9.2648L4.71143 12.8449L7.76753 10.6245L7.80097 10.6092L7.80868 10.6021L7.84686 10.5882L7.96426 10.5345L7.99757 10.5333L8.00493 10.5307L8.03948 10.5319L8.17298 10.5272L8.20148 10.5375L8.21367 10.538L8.25658 10.5576L8.36923 10.5986L8.39201 10.6196L8.41038 10.628L11.4564 12.8411L10.2915 9.25572L10.2907 9.24907L10.2731 9.21067L10.2674 9.04715L10.2667 9.04082L10.2671 9.03923L10.2658 9.00195L10.3221 8.84753L10.3242 8.84003L10.3253 8.83863L10.3373 8.8057L10.4292 8.70568L10.4528 8.67548L10.4614 8.67062L10.4837 8.64642L13.5135 6.44517H9.74977L9.74417 6.44403L9.70497 6.44857L9.55797 6.40645L9.5377 6.40235L9.53327 6.39937L9.50418 6.39103L9.39917 6.30895L9.36452 6.2856L9.35923 6.27773L9.33963 6.26242L9.2923 6.17847L9.24776 6.11242L9.2437 6.09227L9.23338 6.07397L8.0708 2.4959ZM8.03088 0.169478C8.1014 0.163403 8.17426 0.171047 8.2458 0.194292C8.38888 0.24078 8.49957 0.340865 8.56287 0.465095L8.60948 0.62777L10.1456 5.35557H15.0849L15.0879 5.35417C15.2947 5.30613 15.5195 5.38213 15.6522 5.5647C15.7406 5.68642 15.7713 5.83243 15.7495 5.97015L15.7022 6.09995L15.6997 6.11242L15.6953 6.11895L15.678 6.1664L15.6228 6.22645L15.583 6.2856L15.5449 6.31127L15.5316 6.32567L11.4489 9.29195L13.0113 14.1003L13.0144 14.127L13.0357 14.1858L13.0323 14.2828L13.0361 14.3153L13.0305 14.3347L13.0284 14.3945L12.9882 14.4824L12.9786 14.516L12.9647 14.5338L12.9384 14.5912L12.8723 14.6519L12.8499 14.6806L12.8272 14.6934L12.7791 14.7376L12.6935 14.7688L12.6615 14.7868L12.6358 14.7898L12.5829 14.8091L12.4955 14.806L12.4466 14.8117L12.4173 14.8033L12.3742 14.8018L12.3107 14.7727L12.2458 14.7541L12.2115 14.7274L12.1774 14.7117L8.08657 11.7396L4.00048 14.7083L3.9768 14.7191L3.92036 14.7632L3.8134 14.7939L3.80375 14.7983L3.7972 14.7985L3.71958 14.8207C3.64908 14.8268 3.57621 14.8192 3.50466 14.7959C3.29006 14.7262 3.14831 14.5359 3.13008 14.3244L3.14316 14.211L3.14216 14.1823L3.14848 14.1649L3.1549 14.1095L4.71542 9.30665L0.624647 6.33453L0.605355 6.31355L0.557112 6.28102L0.506597 6.2061L0.478252 6.17525L0.469377 6.1509L0.440357 6.10785L0.42376 6.02563L0.406778 5.97902L0.407902 5.94708L0.397545 5.8958L0.412263 5.8229L0.414108 5.77028L0.429812 5.73597L0.440358 5.68373L0.481908 5.6221L0.50412 5.57357L0.531775 5.54815L0.557115 5.51057L0.615483 5.47122L0.6634 5.42717L0.70125 5.41338L0.730282 5.3938L0.785743 5.38262L0.859645 5.3557L0.910253 5.35747L0.942342 5.351H5.99745L7.55931 0.544075L7.56752 0.529528L7.58258 0.47694L7.6349 0.409998L7.66557 0.355623L7.696 0.331833L7.7112 0.31239L7.74593 0.292807L7.83012 0.227008L7.89625 0.20806L7.89965 0.206142L7.90516 0.205503L8.03088 0.169478Z" fill="white"/>
</g>
</g>
<defs>
<clipPath id="clip0_478_1351">
<rect width="16" height="16" fill="white"/>
</clipPath>
</defs>
</svg>
