<svg width="16" height="16" viewBox="0 0 16 16" fill="none" xmlns="http://www.w3.org/2000/svg">
<g clip-path="url(#clip0_479_1429)">
<mask id="mask0_479_1429" style="mask-type:luminance" maskUnits="userSpaceOnUse" x="0" y="0" width="16" height="16">
<path d="M16 0H0V16H16V0Z" fill="white"/>
</mask>
<g mask="url(#mask0_479_1429)">
<path fill-rule="evenodd" clip-rule="evenodd" d="M8.07081 2.4959L6.91207 6.06212L6.89569 6.09118L6.89232 6.10785L6.85547 6.1625L6.80582 6.25057L6.78526 6.26663L6.77556 6.28102L6.71219 6.32375L6.64127 6.37918L6.62162 6.38482L6.60239 6.39778L6.51431 6.41557L6.44049 6.43672L6.42081 6.43443L6.39034 6.44058H2.62436L5.67261 8.65528L5.68467 8.6684L5.71336 8.68457L5.79194 8.7851L5.81901 8.81457L5.82254 8.82427L5.84197 8.84912L5.88026 8.98273L5.89047 9.0108L5.89024 9.01758L5.89951 9.0499L5.88456 9.17928L5.88316 9.21953L5.87882 9.22898L5.87469 9.2648L4.71144 12.8449L7.76754 10.6245L7.80097 10.6092L7.80869 10.6021L7.84687 10.5882L7.96427 10.5345L7.99757 10.5333L8.00494 10.5307L8.03949 10.5319L8.17299 10.5272L8.20149 10.5375L8.21367 10.538L8.25659 10.5576L8.36924 10.5986L8.39202 10.6196L8.41039 10.628L11.4565 12.8411L10.2915 9.25572L10.2907 9.24907L10.2732 9.21067L10.2674 9.04715L10.2667 9.04082L10.2671 9.03923L10.2658 9.00195L10.3221 8.84753L10.3242 8.84003L10.3253 8.83863L10.3373 8.8057L10.4292 8.70568L10.4528 8.67548L10.4615 8.67062L10.4837 8.64642L13.5135 6.44517H9.74977L9.74417 6.44403L9.70497 6.44857L9.55797 6.40645L9.53771 6.40235L9.53327 6.39937L9.50419 6.39103L9.39917 6.30895L9.36452 6.2856L9.35924 6.27773L9.33964 6.26242L9.29231 6.17847L9.24777 6.11242L9.24371 6.09227L9.23339 6.07397L8.07081 2.4959ZM8.03089 0.169478C8.10141 0.163403 8.17427 0.171047 8.24581 0.194292C8.38889 0.24078 8.49957 0.340865 8.56287 0.465095L8.60949 0.62777L10.1456 5.35557H15.0849L15.0879 5.35417C15.2947 5.30613 15.5195 5.38213 15.6522 5.5647C15.7406 5.68642 15.7713 5.83243 15.7495 5.97015L15.7023 6.09995L15.6997 6.11242L15.6953 6.11895L15.6781 6.1664L15.6229 6.22645L15.583 6.2856L15.5449 6.31127L15.5317 6.32567L11.4489 9.29195L13.0113 14.1003L13.0144 14.127L13.0358 14.1858L13.0324 14.2828L13.0361 14.3153L13.0305 14.3347L13.0284 14.3945L12.9882 14.4824L12.9786 14.516L12.9647 14.5338L12.9384 14.5912L12.8724 14.6519L12.85 14.6806L12.8272 14.6934L12.7791 14.7376L12.6935 14.7688L12.6615 14.7868L12.6358 14.7898L12.5829 14.8091L12.4955 14.806L12.4466 14.8117L12.4173 14.8033L12.3742 14.8018L12.3107 14.7727L12.2458 14.7541L12.2116 14.7274L12.1775 14.7117L8.08657 11.7396L4.00049 14.7083L3.97681 14.7191L3.92037 14.7632L3.81341 14.7939L3.80376 14.7983L3.79721 14.7985L3.71959 14.8207C3.64909 14.8268 3.57622 14.8192 3.50467 14.7959C3.29007 14.7262 3.14832 14.5359 3.13009 14.3244L3.14317 14.211L3.14217 14.1823L3.14849 14.1649L3.15491 14.1095L4.71542 9.30665L0.624654 6.33453L0.605363 6.31355L0.557119 6.28102L0.506604 6.2061L0.478259 6.17525L0.469384 6.1509L0.440364 6.10785L0.423768 6.02563L0.406786 5.97902L0.407909 5.94708L0.397552 5.8958L0.412271 5.8229L0.414116 5.77028L0.429819 5.73597L0.440366 5.68373L0.481916 5.6221L0.504128 5.57357L0.531783 5.54815L0.557123 5.51057L0.615491 5.47122L0.663408 5.42717L0.701258 5.41338L0.730289 5.3938L0.785751 5.38262L0.859652 5.3557L0.910261 5.35747L0.942349 5.351H5.99746L7.55932 0.544075L7.56752 0.529528L7.58259 0.47694L7.63491 0.409998L7.66557 0.355623L7.69601 0.331833L7.71121 0.31239L7.74594 0.292807L7.83012 0.227008L7.89626 0.20806L7.89966 0.206142L7.90517 0.205503L8.03089 0.169478Z" fill="#20ECF6"/>
</g>
</g>
<defs>
<clipPath id="clip0_479_1429">
<rect width="16" height="16" fill="white"/>
</clipPath>
</defs>
</svg>
