<svg width="44" height="31" viewBox="0 0 44 31" fill="none" xmlns="http://www.w3.org/2000/svg">
<g clip-path="url(#clip0_475_711)" filter="url(#filter0_d_475_711)">
<mask id="mask0_475_711" style="mask-type:luminance" maskUnits="userSpaceOnUse" x="4" y="0" width="36" height="23">
<path d="M40 0H4V22.5H40V0Z" fill="white"/>
</mask>
<g mask="url(#mask0_475_711)">
<path fill-rule="evenodd" clip-rule="evenodd" d="M15.6443 2.17464L15.6442 2.17506V2.17753C15.6433 2.19057 15.6413 2.20361 15.6384 2.21655L15.6359 2.2247L15.6358 2.22565L15.635 2.2276L15.6267 2.25493L15.6185 2.27204L15.6177 2.2741L15.6167 2.27578L15.6089 2.29203L15.5945 2.31211L15.5906 2.31852L15.5875 2.32188L15.5771 2.33634L15.5568 2.35516L15.5547 2.35743L15.5531 2.35859L15.5383 2.37231C15.5243 2.38286 15.5095 2.39196 15.494 2.39954L15.4908 2.40071L12.2504 4.27631L12.2407 4.28072L12.2201 4.29194L12.2065 4.29619L12.2008 4.29875L12.1913 4.30091L12.1696 4.30766L12.1551 4.30913L12.1492 4.31044L12.1394 4.31072L12.1154 4.31313L12.1014 4.31172L12.0973 4.31181L12.0895 4.3105L12.0612 4.30766L12.048 4.30353L12.0464 4.30325L12.0428 4.30191L12.0108 4.29194L11.9989 4.28547L11.9981 4.28516L11.9962 4.284L11.9651 4.2671L11.9548 4.25856L11.9538 4.25794L11.9516 4.25588L11.9253 4.23416L11.9162 4.22313L11.915 4.22197L11.9129 4.21913L11.8925 4.19428L11.8845 4.17956L11.8832 4.17766L11.8815 4.17403L11.8677 4.14847L11.8625 4.1316L11.8608 4.12788L11.8594 4.12166L11.852 4.09788L11.8504 4.08197L11.8491 4.07619L11.8488 4.06644L11.8466 4.04356V0.26957L11.8488 0.246675L11.8491 0.236931L11.8504 0.23115L11.852 0.215242L11.8594 0.191479L11.8608 0.185255L11.8625 0.181517L11.8677 0.164641L11.8815 0.139101L11.8832 0.135468L11.8845 0.133573L11.8925 0.118851L11.9129 0.0939948L11.915 0.0911576L11.9162 0.0899954L11.9253 0.0789548L11.9516 0.057236L11.9538 0.0551888L11.9548 0.054552L11.9651 0.0460382L11.9962 0.029118L11.9981 0.02796L11.9989 0.0276675L12.0108 0.0211841L12.0428 0.0112079L12.0464 0.00986833L12.048 0.00960183L12.0612 0.00547689L12.0895 0.00262377L12.0973 0.00130894L12.1014 0.00141742L12.1154 0L12.1394 0.00241917L12.1492 0.00267978L12.1551 0.00400758L12.1696 0.0054763L12.1913 0.0122339L12.2008 0.0143777L12.2065 0.016939L12.2201 0.0211841L12.2407 0.0324185L12.2504 0.0367982L15.4908 1.91241L15.494 1.91359C15.5095 1.92116 15.5243 1.93026 15.5383 1.94082L15.5629 1.96368L15.5644 1.96483L15.5652 1.96578L15.5771 1.97679C15.5889 1.99019 15.5996 2.00498 15.6089 2.0211C15.6275 2.05333 15.6386 2.08781 15.6429 2.12256L15.6432 2.13276L15.6443 2.13849L15.6442 2.17216L15.6443 2.17464Z" fill="#20ECF6"/>
<path fill-rule="evenodd" clip-rule="evenodd" d="M23.4595 2.17464L23.4594 2.17506V2.17753C23.4584 2.19057 23.4564 2.20362 23.4535 2.21655L23.451 2.2247L23.4509 2.22565L23.4501 2.22761L23.4417 2.25493L23.4334 2.27204L23.4327 2.27411L23.4316 2.27578L23.4238 2.29203L23.4092 2.31211L23.4053 2.31853L23.4021 2.32188L23.3917 2.33634L23.3712 2.35517L23.3691 2.35743L23.3675 2.35859L23.3526 2.37231C23.3385 2.38287 23.3235 2.39196 23.3079 2.39954L23.3047 2.40072L20.0376 4.27631L20.0278 4.28072L20.007 4.29194L19.9932 4.29619L19.9875 4.29875L19.978 4.30091L19.9561 4.30766L19.9414 4.30912L19.9355 4.31044L19.9256 4.31072L19.9015 4.31313L19.8873 4.31172L19.8832 4.31181L19.8753 4.3105L19.8468 4.30766L19.8334 4.30353L19.8318 4.30325L19.8282 4.30191L19.7959 4.29194L19.7839 4.28547L19.7831 4.28516L19.7812 4.284L19.7499 4.26709L19.7395 4.25856L19.7384 4.25794L19.7362 4.25591L19.7097 4.23416L19.7006 4.22312L19.6993 4.22197L19.6973 4.21912L19.6766 4.19428L19.6686 4.17956L19.6672 4.17766L19.6656 4.17403L19.6517 4.1485L19.6464 4.13159L19.6447 4.12787L19.6433 4.12166L19.6358 4.09788L19.6342 4.08197L19.6329 4.07619L19.6327 4.06644L19.6303 4.04356V0.26957L19.6327 0.246675L19.6329 0.236931L19.6342 0.23115L19.6358 0.215243L19.6433 0.191479L19.6447 0.185255L19.6464 0.181517L19.6517 0.164641L19.6656 0.139101L19.6672 0.135468L19.6686 0.133573L19.6766 0.118851L19.6973 0.0939947L19.6993 0.0911575L19.7006 0.0899953L19.7097 0.078955L19.7362 0.0572359L19.7384 0.0551887L19.7395 0.0545522L19.7499 0.0460381L19.7812 0.029118L19.7831 0.02796L19.7839 0.0276675L19.7959 0.0211842L19.8282 0.0112079L19.8318 0.00986834L19.8334 0.00960181L19.8468 0.00547691L19.8753 0.00262377L19.8832 0.00130894L19.8873 0.00141742L19.9015 0L19.9256 0.00241918L19.9355 0.00267978L19.9414 0.00400759L19.9561 0.00547631L19.978 0.0122338L19.9875 0.0143777L19.9932 0.0169389L20.007 0.0211842L20.0278 0.0324188L20.0376 0.0367981L23.3047 1.91241L23.3079 1.91359C23.3235 1.92116 23.3385 1.93026 23.3526 1.94082L23.3774 1.96368L23.379 1.96483L23.3797 1.96578L23.3917 1.97678C23.4036 1.99019 23.4144 2.00498 23.4238 2.02109C23.4425 2.05333 23.4537 2.08781 23.4581 2.12256L23.4584 2.13276L23.4595 2.13848L23.4594 2.17216L23.4595 2.17464Z" fill="#20ECF6"/>
<path fill-rule="evenodd" clip-rule="evenodd" d="M32.5307 7.18853C34.2225 7.20665 35.5686 7.44325 36.5692 7.89834C37.5698 8.35344 38.2973 8.91841 38.7518 9.59334C39.2066 10.2682 39.4608 10.9444 39.5148 11.6219H35.5422C35.4738 11.2286 35.2204 10.8493 34.7823 10.4842C34.3443 10.1191 33.5369 9.92359 32.3602 9.89769C31.3634 9.91891 30.7005 10.0814 30.3714 10.3853C30.0423 10.6891 29.8907 11.0072 29.9168 11.3393C29.8789 11.7015 30.0896 12.0088 30.549 12.2615C31.0083 12.5141 31.9435 12.7438 33.3546 12.9505C35.2599 13.2382 36.6919 13.6238 37.6507 14.1074C38.6096 14.5909 39.2467 15.1419 39.5622 15.7605C39.8773 16.379 40.0226 17.0347 39.9972 17.7277C40.0198 19.075 39.4711 20.1942 38.3513 21.0853C37.2311 21.9763 35.4047 22.4386 32.8716 22.472C30.8139 22.465 29.1222 22.0486 27.7965 21.2228C26.4709 20.397 25.6739 19.2037 25.4054 17.6428H29.4061C29.5982 18.2718 29.9946 18.7665 30.5953 19.1269C31.1959 19.4873 32.04 19.6711 33.1273 19.6781C34.2313 19.6657 34.9996 19.5067 35.4324 19.2011C35.8649 18.8955 36.072 18.5174 36.0538 18.0668C36.0912 17.6058 35.846 17.2277 35.3186 16.9327C34.7912 16.6376 33.7577 16.3938 32.2181 16.2012C30.4341 15.9473 29.0912 15.582 28.1893 15.1051C27.2875 14.6282 26.6868 14.0932 26.3875 13.5002C26.0881 12.9071 25.95 12.3093 25.9733 11.7067C25.9628 10.9926 26.1635 10.2923 26.5755 9.60594C26.9876 8.9195 27.674 8.34925 28.635 7.89522C29.5959 7.44112 30.8944 7.20559 32.5307 7.18853Z" fill="white"/>
<path fill-rule="evenodd" clip-rule="evenodd" d="M4.18832 7.59484H8.20575V22.0657H4.18832V7.59484Z" fill="white"/>
<path fill-rule="evenodd" clip-rule="evenodd" d="M17.3125 15.5521C15.999 15.5503 15.0389 15.7165 14.4322 16.0505C13.8254 16.3846 13.5259 16.8972 13.5336 17.5883C13.5289 18.1546 13.7514 18.6271 14.2013 19.006C14.6512 19.3848 15.3567 19.5816 16.318 19.5963C17.7837 19.5793 18.8444 19.2387 19.5002 18.5747C20.1561 17.9106 20.4781 17.0257 20.4663 15.9197V15.5521H17.3125ZM17.3977 7.21981C19.37 7.23963 20.8611 7.51356 21.871 8.04163C22.8809 8.56963 23.558 9.23285 23.9023 10.0312C24.2466 10.8296 24.4064 11.6442 24.3816 12.475V18.1823C24.3846 19.0933 24.3999 19.9278 24.4278 20.6861C24.4556 21.4443 24.4781 21.9183 24.4952 22.1082H20.7216C20.6649 21.8877 20.6223 21.5948 20.5939 21.2297C20.5656 20.8646 20.5514 20.5647 20.5514 20.3302C20.1596 21.001 19.5298 21.529 18.6621 21.9141C17.7943 22.2992 16.6531 22.4956 15.2383 22.5033C13.8998 22.4874 12.817 22.2494 11.9896 21.7892C11.1623 21.329 10.5589 20.7415 10.1794 20.0269C9.80002 19.3122 9.61296 18.5654 9.61823 17.7863C9.63361 16.5436 9.97798 15.5694 10.6514 14.8638C11.3248 14.1581 12.2349 13.6612 13.3818 13.3732C14.5286 13.0851 15.8199 12.946 17.2557 12.9559H20.4663V12.4184C20.4935 11.7477 20.297 11.1795 19.8767 10.7139C19.4565 10.2483 18.6491 10.0055 17.4545 9.98544C16.3624 10.0025 15.6131 10.1947 15.2064 10.5619C14.7998 10.929 14.5547 11.3688 14.4712 11.8809H10.4411C10.469 11.2445 10.681 10.5692 11.077 9.85519C11.4729 9.14116 12.1687 8.52931 13.1643 8.0196C14.1598 7.50988 15.571 7.24328 17.3977 7.21981Z" fill="white"/>
<path fill-rule="evenodd" clip-rule="evenodd" d="M7.82912 2.17464L7.82906 2.17506V2.17753C7.82805 2.19057 7.82611 2.20362 7.82319 2.21655L7.82068 2.2247L7.82052 2.22565L7.81977 2.22761L7.81135 2.25493L7.8031 2.27204L7.80232 2.27411L7.80128 2.27578L7.79343 2.29203L7.7789 2.31211L7.77495 2.31853L7.77181 2.32188L7.76132 2.33634L7.74086 2.35517L7.73876 2.35743L7.73716 2.35859L7.72222 2.37231C7.70816 2.38287 7.69319 2.39196 7.67756 2.39954L7.67439 2.40072L4.40723 4.27631L4.39744 4.28072L4.37663 4.29194L4.36288 4.29619L4.35716 4.29875L4.34763 4.30091L4.32574 4.30766L4.31109 4.30912L4.30519 4.31044L4.29524 4.31072L4.2711 4.31313L4.25696 4.31172L4.25281 4.31181L4.24493 4.3105L4.21647 4.30766L4.2031 4.30353L4.20151 4.30325L4.1979 4.30191L4.16558 4.29194L4.15356 4.28547L4.15278 4.28516L4.15088 4.284L4.11953 4.26709L4.10915 4.25856L4.1081 4.25794L4.10588 4.25591L4.0794 4.23416L4.07024 4.22312L4.06898 4.22197L4.06693 4.21912L4.0463 4.19428L4.03826 4.17956L4.03689 4.17766L4.03525 4.17403L4.0213 4.1485L4.01604 4.13159L4.01434 4.12787L4.01293 4.12166L4.00551 4.09788L4.0039 4.08197L4.00258 4.07619L4.00232 4.06644L4 4.04356V0.26957L4.00232 0.246675L4.00258 0.236931L4.0039 0.23115L4.00551 0.215243L4.01293 0.191479L4.01434 0.185255L4.01604 0.181517L4.0213 0.164641L4.03525 0.139101L4.03689 0.135468L4.03826 0.133573L4.0463 0.118851L4.06693 0.0939947L4.06898 0.0911575L4.07024 0.0899953L4.0794 0.078955L4.10588 0.0572359L4.1081 0.0551887L4.10915 0.0545522L4.11953 0.0460381L4.15088 0.029118L4.15278 0.02796L4.15356 0.0276675L4.16558 0.0211842L4.1979 0.0112079L4.20151 0.00986834L4.2031 0.00960181L4.21647 0.00547691L4.24493 0.00262377L4.25281 0.00130894L4.25696 0.00141742L4.2711 0L4.29524 0.00241918L4.30519 0.00267978L4.31109 0.00400759L4.32574 0.00547631L4.34763 0.0122338L4.35716 0.0143777L4.36288 0.0169389L4.37663 0.0211842L4.39745 0.0324188L4.40723 0.0367981L7.67439 1.91241L7.67756 1.91359C7.69319 1.92116 7.70816 1.93026 7.72222 1.94082L7.74708 1.96368L7.74861 1.96483L7.74937 1.96578L7.76132 1.97678C7.77328 1.99019 7.78408 2.00498 7.79343 2.02109C7.81214 2.05333 7.82341 2.08781 7.82774 2.12256L7.82802 2.13276L7.82912 2.13848L7.82906 2.17216L7.82912 2.17464Z" fill="#20ECF6"/>
</g>
</g>
<defs>
<filter id="filter0_d_475_711" x="0" y="0" width="44" height="30.5" filterUnits="userSpaceOnUse" color-interpolation-filters="sRGB">
<feFlood flood-opacity="0" result="BackgroundImageFix"/>
<feColorMatrix in="SourceAlpha" type="matrix" values="0 0 0 0 0 0 0 0 0 0 0 0 0 0 0 0 0 0 127 0" result="hardAlpha"/>
<feOffset dy="4"/>
<feGaussianBlur stdDeviation="2"/>
<feComposite in2="hardAlpha" operator="out"/>
<feColorMatrix type="matrix" values="0 0 0 0 0 0 0 0 0 0 0 0 0 0 0 0 0 0 0.25 0"/>
<feBlend mode="normal" in2="BackgroundImageFix" result="effect1_dropShadow_475_711"/>
<feBlend mode="normal" in="SourceGraphic" in2="effect1_dropShadow_475_711" result="shape"/>
</filter>
<clipPath id="clip0_475_711">
<rect width="36" height="22.5" fill="white" transform="translate(4)"/>
</clipPath>
</defs>
</svg>
