<svg width="148" height="37" xmlns="http://www.w3.org/2000/svg" xmlns:xlink="http://www.w3.org/1999/xlink" xml:space="preserve" overflow="hidden"><g transform="translate(-222 -179)"><path d="M240.475 179 370 179 351.525 216 222 216 240.475 179Z" fill="#FFFFFF" fill-rule="evenodd" fill-opacity="0"/><path d="M365.936 179 243.044 179C241.556 179.087 240.2 179.83 239.368 181.097L223.35 213.029C223 214.253 223.7 215.563 224.926 215.912 225.145 215.956 225.363 216 225.582 216L349.524 216C350.75 215.781 351.8 215.126 352.5 214.121L368.562 182.058C369 180.878 368.387 179.524 367.162 179.131 367.074 179.087 366.943 179.044 366.855 179L365.936 179Z" fill="#ABC2CF" fill-rule="evenodd"/></g></svg>