<svg width="173" height="108" viewBox="0 0 173 108" fill="none" xmlns="http://www.w3.org/2000/svg">
<g clip-path="url(#clip0_475_319)">
<mask id="mask0_475_319" style="mask-type:luminance" maskUnits="userSpaceOnUse" x="0" y="0" width="173" height="108">
<path d="M172.05 0H0V108H172.05V0Z" fill="white"/>
</mask>
<g mask="url(#mask0_475_319)">
<path fill-rule="evenodd" clip-rule="evenodd" d="M55.65 10.4383L55.6497 10.4403V10.4521C55.645 10.5148 55.6358 10.5773 55.6218 10.6394L55.61 10.6786L55.6092 10.6831L55.6057 10.6925L55.5658 10.8236L55.5267 10.9058L55.523 10.9157L55.518 10.9237L55.4808 11.0017L55.4119 11.0981L55.3932 11.1289L55.3783 11.145L55.3287 11.2144L55.2317 11.3048L55.2217 11.3157L55.2141 11.3212L55.1433 11.3871C55.0767 11.4377 55.0057 11.4814 54.9315 11.5178L54.9165 11.5234L39.4302 20.5263L39.3838 20.5475L39.2853 20.6013L39.2201 20.6217L39.1929 20.634L39.1477 20.6444L39.0439 20.6768L38.9745 20.6838L38.9466 20.6901L38.8995 20.6915L38.785 20.703L38.718 20.6963L38.6984 20.6967L38.661 20.6904L38.526 20.6768L38.4627 20.657L38.4552 20.6556L38.4381 20.6492L38.2848 20.6013L38.2279 20.5703L38.2242 20.5688L38.2152 20.5632L38.0665 20.4821L38.0174 20.4411L38.0124 20.4381L38.0019 20.4282L37.8764 20.324L37.833 20.271L37.827 20.2655L37.8173 20.2518L37.7194 20.1326L37.6813 20.0619L37.6749 20.0528L37.6671 20.0354L37.601 19.9127L37.5761 19.8317L37.568 19.8138L37.5613 19.784L37.5261 19.6698L37.5185 19.5935L37.5123 19.5657L37.5109 19.5189L37.5 19.4091V1.29394L37.5109 1.18404L37.5123 1.13727L37.5185 1.10952L37.5261 1.03316L37.5613 0.919101L37.568 0.889226L37.5761 0.871283L37.601 0.790278L37.6671 0.667685L37.6749 0.650246L37.6813 0.64115L37.7194 0.570485L37.8173 0.451175L37.827 0.437556L37.833 0.431978L37.8764 0.378983L38.0019 0.274733L38.0124 0.264906L38.0174 0.261849L38.0665 0.220983L38.2152 0.139766L38.2242 0.134208L38.2279 0.132804L38.2848 0.101684L38.4381 0.053798L38.4552 0.047368L38.4627 0.0460888L38.526 0.0262891L38.661 0.0125941L38.6984 0.0062829L38.718 0.00680364L38.785 0L38.8995 0.011612L38.9466 0.012863L38.9745 0.0192364L39.0439 0.0262862L39.1477 0.0587225L39.1929 0.0690128L39.2201 0.081307L39.2853 0.101684L39.3838 0.155609L39.4302 0.176631L54.9165 9.17957L54.9315 9.18521C55.0057 9.22159 55.0767 9.26525 55.1433 9.31592L55.2612 9.42565L55.2684 9.43117L55.272 9.43574L55.3287 9.48857C55.3854 9.55289 55.4364 9.62389 55.4808 9.70126C55.5696 9.85598 55.6229 10.0215 55.6434 10.1883L55.6448 10.2372L55.65 10.2647L55.6497 10.4264L55.65 10.4383Z" fill="#20ECF6"/>
<path fill-rule="evenodd" clip-rule="evenodd" d="M93 10.4383L92.9997 10.4403V10.4521C92.9949 10.5147 92.9856 10.5774 92.9717 10.6394L92.9597 10.6786L92.9589 10.6831L92.9553 10.6925L92.9151 10.8236L92.8757 10.9058L92.8719 10.9157L92.867 10.9237L92.8295 11.0018L92.76 11.0981L92.7411 11.1289L92.7261 11.145L92.676 11.2145L92.5782 11.3048L92.5682 11.3157L92.5605 11.3212L92.4891 11.3871C92.4219 11.4378 92.3504 11.4814 92.2757 11.5178L92.2605 11.5234L76.6463 20.5263L76.5995 20.5475L76.5 20.6013L76.4343 20.6217L76.4069 20.634L76.3614 20.6444L76.2567 20.6768L76.1868 20.6838L76.1586 20.6901L76.1111 20.6915L75.9957 20.703L75.9281 20.6963L75.9083 20.6967L75.8706 20.6904L75.7346 20.6768L75.6707 20.6569L75.663 20.6556L75.6458 20.6492L75.4914 20.6013L75.434 20.5702L75.4302 20.5688L75.4211 20.5632L75.2712 20.482L75.2217 20.4411L75.2166 20.4381L75.206 20.4284L75.0795 20.3239L75.0357 20.271L75.0297 20.2654L75.0198 20.2518L74.9213 20.1325L74.8829 20.0619L74.8763 20.0527L74.8685 20.0354L74.8019 19.9128L74.7767 19.8316L74.7686 19.8138L74.7618 19.784L74.7263 19.6698L74.7186 19.5935L74.7123 19.5657L74.7111 19.5189L74.7 19.4091V1.29394L74.7111 1.18404L74.7123 1.13727L74.7186 1.10952L74.7263 1.03316L74.7618 0.919101L74.7686 0.889226L74.7767 0.871283L74.8019 0.790278L74.8685 0.667686L74.8763 0.650247L74.8829 0.64115L74.9213 0.570485L75.0198 0.451174L75.0297 0.437556L75.0357 0.431978L75.0795 0.378984L75.206 0.274733L75.2166 0.264906L75.2217 0.261851L75.2712 0.220983L75.4211 0.139766L75.4302 0.134208L75.434 0.132804L75.4914 0.101684L75.6458 0.0537981L75.663 0.047368L75.6707 0.0460887L75.7346 0.0262892L75.8706 0.0125941L75.9083 0.0062829L75.9281 0.00680364L75.9957 0L76.1111 0.011612L76.1586 0.012863L76.1868 0.0192365L76.2567 0.0262863L76.3614 0.0587225L76.4069 0.0690129L76.4343 0.0813069L76.5 0.101684L76.5995 0.15561L76.6463 0.176631L92.2605 9.17958L92.2757 9.18522C92.3504 9.22158 92.4219 9.26526 92.4891 9.31592L92.6079 9.42564L92.6153 9.43116L92.6189 9.43575L92.676 9.48857C92.7332 9.5529 92.7848 9.6239 92.8295 9.70125C92.9189 9.85598 92.9727 10.0215 92.9934 10.1883L92.9948 10.2372L93 10.2647L92.9997 10.4264L93 10.4383Z" fill="#20ECF6"/>
<path fill-rule="evenodd" clip-rule="evenodd" d="M136.353 34.5049C144.438 34.5919 150.871 35.7276 155.653 37.912C160.435 40.0965 163.912 42.8083 166.084 46.048C168.258 49.2874 169.473 52.5333 169.731 55.7853H150.745C150.418 53.8971 149.207 52.0768 147.114 50.3242C145.02 48.5718 141.162 47.6332 135.538 47.5089C130.774 47.6107 127.606 48.3907 126.033 49.8493C124.46 51.3078 123.736 52.8343 123.861 54.4285C123.679 56.167 124.687 57.6424 126.882 58.8552C129.077 60.0678 133.547 61.1701 140.291 62.1624C149.396 63.5436 156.24 65.3944 160.822 67.7154C165.405 70.0362 168.45 72.6811 169.958 75.6502C171.464 78.6193 172.158 81.7668 172.036 85.0929C172.145 91.5598 169.522 96.9321 164.17 101.209C158.817 105.486 150.088 107.705 137.982 107.866C128.148 107.832 120.063 105.833 113.728 101.869C107.392 97.9056 103.583 92.1777 102.3 84.6856H121.42C122.338 87.7047 124.232 90.079 127.103 91.8091C129.974 93.5391 134.008 94.4211 139.204 94.4548C144.48 94.3954 148.152 93.6324 150.22 92.1652C152.287 90.6982 153.277 88.8834 153.19 86.7208C153.369 84.5077 152.197 82.6929 149.677 81.2767C147.156 79.8604 142.217 78.6903 134.859 77.766C126.333 76.5472 119.915 74.7934 115.605 72.5044C111.295 70.2154 108.424 67.6474 106.993 64.8007C105.562 61.9539 104.903 59.0845 105.014 56.1924C104.964 52.7644 105.923 49.4031 107.892 46.1085C109.861 42.8136 113.142 40.0764 117.735 37.897C122.327 35.7174 128.533 34.5868 136.353 34.5049Z" fill="white"/>
<path fill-rule="evenodd" clip-rule="evenodd" d="M0.900024 36.4553H20.1V105.915H0.900024V36.4553Z" fill="white"/>
<path fill-rule="evenodd" clip-rule="evenodd" d="M63.6225 74.6499C57.3451 74.6413 52.7566 75.439 49.857 77.0424C46.9572 78.6462 45.5259 81.1066 45.5626 84.424C45.54 87.1419 46.6036 89.41 48.7536 91.2286C50.9037 93.0471 54.2757 93.9916 58.8699 94.0624C65.8744 93.9804 70.9438 92.3457 74.0782 89.1583C77.2126 85.971 78.7515 81.7231 78.6949 76.4146V74.6499H63.6225ZM64.03 34.6551C73.4556 34.7502 80.5818 36.0651 85.4083 38.5998C90.235 41.1342 93.471 44.3176 95.1165 48.1498C96.7617 51.982 97.5253 55.8922 97.4071 59.88V87.2748C97.4212 91.6476 97.4947 95.6536 97.6278 99.2931C97.7605 102.932 97.8681 105.208 97.95 106.119H79.9153C79.6441 105.061 79.4406 103.655 79.3051 101.903C79.1695 100.15 79.1017 98.7106 79.1017 97.5847C77.2293 100.805 74.2195 103.339 70.0725 105.188C65.9253 107.036 60.4711 107.979 53.7099 108.016C47.313 107.94 42.1377 106.797 38.1837 104.588C34.2297 102.379 31.3459 99.5592 29.5326 96.129C27.7192 92.6986 26.8252 89.1138 26.8504 85.3743C26.9239 79.4092 28.5697 74.7331 31.788 71.346C35.0064 67.9588 39.3559 65.5738 44.8369 64.1911C50.3179 62.8083 56.4894 62.1408 63.351 62.1885H78.6949V59.6085C78.825 56.3889 77.886 53.6617 75.8775 51.4269C73.869 49.1919 70.0102 48.0262 64.3014 47.9301C59.0821 48.0121 55.5007 48.9345 53.5572 50.697C51.6138 52.4593 50.4426 54.57 50.0437 57.0283H30.7828C30.9165 53.9734 31.9296 50.7322 33.822 47.3049C35.7144 43.8775 39.0397 40.9407 43.7976 38.494C48.5556 36.0474 55.2997 34.7677 64.03 34.6551Z" fill="white"/>
<path fill-rule="evenodd" clip-rule="evenodd" d="M18.3 10.4383L18.2997 10.4403V10.4521C18.2949 10.5147 18.2856 10.5774 18.2717 10.6394L18.2597 10.6786L18.2589 10.6831L18.2553 10.6925L18.2151 10.8236L18.1757 10.9058L18.1719 10.9157L18.167 10.9237L18.1295 11.0018L18.06 11.0981L18.0411 11.1289L18.0261 11.145L17.976 11.2145L17.8782 11.3048L17.8682 11.3157L17.8605 11.3212L17.7891 11.3871C17.7219 11.4378 17.6504 11.4814 17.5757 11.5178L17.5605 11.5234L1.94621 20.5263L1.89945 20.5475L1.79999 20.6013L1.73426 20.6217L1.70691 20.634L1.6614 20.6444L1.55678 20.6768L1.48673 20.6838L1.45854 20.6901L1.41102 20.6915L1.29566 20.703L1.22806 20.6963L1.20821 20.6967L1.17054 20.6904L1.03454 20.6768L0.970658 20.6569L0.963038 20.6556L0.945788 20.6492L0.791328 20.6013L0.73391 20.5702L0.730151 20.5688L0.721073 20.5632L0.571242 20.482L0.521645 20.4411L0.516651 20.4381L0.506007 20.4284L0.379487 20.3239L0.335706 20.271L0.329667 20.2654L0.319848 20.2518L0.22128 20.1325L0.182868 20.0619L0.176313 20.0527L0.168446 20.0354L0.101818 19.9128L0.0766412 19.8316L0.068549 19.8138L0.0617763 19.784L0.0263214 19.6698L0.018615 19.5935L0.0123253 19.5657L0.0110905 19.5189L0 19.4091V1.29394L0.0110905 1.18404L0.0123253 1.13727L0.018615 1.10952L0.0263214 1.03316L0.0617763 0.919101L0.068549 0.889226L0.0766412 0.871283L0.101818 0.790278L0.168446 0.667686L0.176312 0.650247L0.182868 0.64115L0.22128 0.570485L0.319848 0.451174L0.329667 0.437556L0.335706 0.431978L0.379487 0.378984L0.506012 0.274733L0.516651 0.264906L0.521645 0.261851L0.571242 0.220983L0.721068 0.139766L0.730152 0.134208L0.73391 0.132804L0.791328 0.101684L0.945788 0.0537981L0.963041 0.047368L0.970658 0.0460887L1.03454 0.0262892L1.17054 0.0125941L1.20821 0.0062829L1.22806 0.00680364L1.29566 0L1.41102 0.011612L1.45854 0.012863L1.48673 0.0192365L1.55678 0.0262863L1.6614 0.0587225L1.70691 0.0690129L1.73426 0.0813069L1.79999 0.101684L1.89947 0.15561L1.94621 0.176631L17.5605 9.17958L17.5757 9.18522C17.6504 9.22158 17.7219 9.26526 17.7891 9.31592L17.9079 9.42564L17.9153 9.43116L17.9189 9.43575L17.976 9.48857C18.0332 9.5529 18.0848 9.6239 18.1295 9.70125C18.2189 9.85598 18.2727 10.0215 18.2934 10.1883L18.2948 10.2372L18.3 10.2647L18.2997 10.4264L18.3 10.4383Z" fill="#20ECF6"/>
</g>
</g>
<defs>
<clipPath id="clip0_475_319">
<rect width="172.05" height="108" fill="white"/>
</clipPath>
</defs>
</svg>
