<svg width="24" height="24" viewBox="0 0 24 24" fill="none" xmlns="http://www.w3.org/2000/svg">
<g clip-path="url(#clip0_141_73)">
<mask id="mask0_141_73" style="mask-type:luminance" maskUnits="userSpaceOnUse" x="0" y="0" width="24" height="24">
<path d="M24 0H0V24H24V0Z" fill="white"/>
</mask>
<g mask="url(#mask0_141_73)">
<path d="M24 0H0V24H24V0Z" fill="#20ECF6"/>
<path fill-rule="evenodd" clip-rule="evenodd" d="M19.625 13.525V10.475H17.795C17.795 9.865 17.49 9.255 17.185 8.95001L18.405 7.73L16.27 5.59501L15.05 6.81501C14.44 6.51 14.135 6.20501 13.525 6.20501V4.375H10.475V6.20501C9.865 6.20501 9.255 6.51 8.95001 6.81501L7.73 5.59501L5.59501 7.73L6.81501 8.95001C6.51 9.56001 6.20501 9.865 6.20501 10.475H4.375V13.525H6.20501C6.20501 14.135 6.51 14.745 6.81501 15.05L5.59501 16.27L7.73 18.405L8.95001 17.185C9.56001 17.49 9.865 17.795 10.475 17.795V19.625H13.525V17.795C14.135 17.795 14.745 17.49 15.05 17.185L16.27 18.405L18.405 16.27L17.185 15.05C17.49 14.44 17.795 14.135 17.795 13.525H19.625ZM12 15.05C10.17 15.05 8.95001 13.83 8.95001 12C8.95001 10.17 10.17 8.95001 12 8.95001C13.83 8.95001 15.05 10.17 15.05 12C15.05 13.83 13.83 15.05 12 15.05Z" fill="#002B52"/>
<path fill-rule="evenodd" clip-rule="evenodd" d="M4 0H20C22.2091 0 24 1.7909 24 4V20C24 22.2091 22.2091 24 20 24H4C1.7909 24 0 22.2091 0 20V4C0 1.7909 1.7909 0 4 0ZM4.14283 2C2.95931 2 2 2.95931 2 4.14283V19.8571C2 21.0406 2.95931 22 4.14283 22H19.8571C21.0406 22 22 21.0406 22 19.8571V4.14283C22 2.95931 21.0406 2 19.8571 2H4.14283Z" fill="#002B52"/>
</g>
</g>
<defs>
<clipPath id="clip0_141_73">
<rect width="24" height="24" fill="white"/>
</clipPath>
</defs>
</svg>
